<svg width="241" height="47" viewBox="0 0 241 47" fill="none" xmlns="http://www.w3.org/2000/svg">
<path fill-rule="evenodd" clip-rule="evenodd" d="M22.5981 1.5C21.4434 -0.5 18.5566 -0.5 17.4019 1.5L13.6491 8H8C3.58172 8 0 11.5817 0 16V39C0 43.4183 3.58172 47 8 47H233C237.418 47 241 43.4183 241 39V16C241 11.5817 237.418 8 233 8H26.3509L22.5981 1.5Z" fill="#5865F2"/>
<path d="M12 21.7632H16.2105V29.1316H12V21.7632Z" fill="#ECA815"/>
<path d="M27.7895 23.6579C27.7895 22.6115 28.6378 21.7632 29.6842 21.7632H30.1053C31.1517 21.7632 32 22.6115 32 23.6579V27.2368C32 28.2833 31.1517 29.1316 30.1053 29.1316H29.6842C28.6378 29.1316 27.7895 28.2833 27.7895 27.2368V23.6579Z" fill="#ECA815"/>
<path d="M17.2632 28.0789H22.5263V35.4474H17.2632V28.0789Z" fill="#ECA815"/>
<path d="M16.2105 20.7105C16.2105 20.7105 20.9474 20.7105 23.5789 19.6579C26.2105 18.6053 29.8947 16.5 29.8947 16.5V34.3947C29.8947 34.3947 25.4717 31.8678 23.5789 31.2368C21.6862 30.6059 16.2105 30.1842 16.2105 30.1842V20.7105Z" fill="#F9C701"/>
<path d="M49.1022 19.268H50.9642V26.506H49.1022V19.268ZM50.4602 22.096H52.6862V23.608H50.4602V22.096ZM45.3922 20.01H47.3662C47.3662 21.158 47.1329 22.1847 46.6662 23.09C46.2089 23.986 45.5322 24.7467 44.6362 25.372C43.7402 25.988 42.6482 26.464 41.3602 26.8L40.6322 25.344C41.6962 25.0733 42.5782 24.7187 43.2782 24.28C43.9782 23.8413 44.5056 23.3373 44.8602 22.768C45.2149 22.1987 45.3922 21.592 45.3922 20.948V20.01ZM41.2482 20.01H46.4982V21.494H41.2482V20.01ZM42.5642 27.01H50.9642V32.106H42.5642V27.01ZM49.1442 28.48H44.3982V30.636H49.1442V28.48ZM60.6791 22.404H63.1431V23.916H60.6791V22.404ZM62.6251 19.282H64.5011V26.982H62.6251V19.282ZM60.1051 27.262C61.0198 27.262 61.8085 27.36 62.4711 27.556C63.1338 27.752 63.6425 28.0367 63.9971 28.41C64.3611 28.7833 64.5431 29.2313 64.5431 29.754C64.5431 30.5567 64.1465 31.1727 63.3531 31.602C62.5598 32.0407 61.4771 32.26 60.1051 32.26C58.7331 32.26 57.6505 32.0407 56.8571 31.602C56.0638 31.1727 55.6671 30.5567 55.6671 29.754C55.6671 29.2313 55.8445 28.7833 56.1991 28.41C56.5631 28.0367 57.0765 27.752 57.7391 27.556C58.4018 27.36 59.1905 27.262 60.1051 27.262ZM60.1051 28.676C59.5451 28.676 59.0738 28.718 58.6911 28.802C58.3085 28.8767 58.0145 28.9933 57.8091 29.152C57.6131 29.3107 57.5151 29.5113 57.5151 29.754C57.5151 29.9967 57.6131 30.202 57.8091 30.37C58.0145 30.5287 58.3085 30.65 58.6911 30.734C59.0738 30.8087 59.5451 30.846 60.1051 30.846C60.6651 30.846 61.1365 30.8087 61.5191 30.734C61.9018 30.65 62.1911 30.5287 62.3871 30.37C62.5831 30.202 62.6811 29.9967 62.6811 29.754C62.6811 29.5113 62.5831 29.3107 62.3871 29.152C62.1911 28.9933 61.9018 28.8767 61.5191 28.802C61.1365 28.718 60.6651 28.676 60.1051 28.676ZM56.6471 20.57H58.1591V21.396C58.1591 22.2173 58.0285 23.0013 57.7671 23.748C57.5058 24.4947 57.1045 25.1527 56.5631 25.722C56.0311 26.282 55.3498 26.702 54.5191 26.982L53.5811 25.512C54.1131 25.3347 54.5705 25.0967 54.9531 24.798C55.3451 24.4993 55.6625 24.168 55.9051 23.804C56.1571 23.4307 56.3438 23.0387 56.4651 22.628C56.5865 22.2173 56.6471 21.8067 56.6471 21.396V20.57ZM57.0391 20.57H58.5231V21.382C58.5231 21.8953 58.6258 22.3993 58.8311 22.894C59.0365 23.3887 59.3538 23.8367 59.7831 24.238C60.2218 24.6393 60.7818 24.9567 61.4631 25.19L60.5531 26.646C59.7505 26.3753 59.0878 25.9787 58.5651 25.456C58.0518 24.924 57.6691 24.308 57.4171 23.608C57.1651 22.8987 57.0391 22.1567 57.0391 21.382V20.57ZM54.0851 20.066H61.0571V21.536H54.0851V20.066ZM72.3961 19.45C73.8707 19.45 75.0187 19.6413 75.8401 20.024C76.6707 20.4067 77.0861 20.9573 77.0861 21.676C77.0861 22.3853 76.6707 22.9313 75.8401 23.314C75.0187 23.6967 73.8707 23.888 72.3961 23.888C70.9121 23.888 69.7547 23.6967 68.9241 23.314C68.1027 22.9313 67.6921 22.3853 67.6921 21.676C67.6921 20.9573 68.1027 20.4067 68.9241 20.024C69.7547 19.6413 70.9121 19.45 72.3961 19.45ZM72.3821 20.822C71.7661 20.822 71.2527 20.8547 70.8421 20.92C70.4314 20.976 70.1234 21.0693 69.9181 21.2C69.7221 21.3213 69.6241 21.48 69.6241 21.676C69.6241 21.872 69.7221 22.0353 69.9181 22.166C70.1234 22.2873 70.4314 22.376 70.8421 22.432C71.2527 22.488 71.7661 22.516 72.3821 22.516C73.0074 22.516 73.5254 22.488 73.9361 22.432C74.3467 22.376 74.6501 22.2873 74.8461 22.166C75.0421 22.0353 75.1401 21.872 75.1401 21.676C75.1401 21.48 75.0421 21.3213 74.8461 21.2C74.6501 21.0693 74.3467 20.976 73.9361 20.92C73.5254 20.8547 73.0074 20.822 72.3821 20.822ZM66.5161 24.49H78.2481V25.96H66.5161V24.49ZM67.8601 26.688H76.8201V30.006H69.7221V31.154H67.8741V28.718H74.9861V28.06H67.8601V26.688ZM67.8741 30.748H77.1701V32.162H67.8741V30.748ZM84.3513 23.314H93.4093V24.784H84.3513V23.314ZM82.8953 26.268H94.6413V27.766H82.8953V26.268ZM87.7813 27.15H89.6293V32.246H87.7813V27.15ZM84.3513 19.856H86.2133V24H84.3513V19.856ZM95.7742 29.264H107.52V30.79H95.7742V29.264ZM97.1042 20.136H106.19V24.476H98.9662V26.646H97.1182V23.02H104.342V21.634H97.1042V20.136ZM97.1182 25.918H106.484V27.402H97.1182V25.918ZM114.911 21.312H118.173V22.796H114.911V21.312ZM114.911 24.098H118.229V25.582H114.911V24.098ZM109.171 20.318H115.303V26.66H109.171V20.318ZM113.483 21.774H111.005V25.19H113.483V21.774ZM117.627 19.282H119.503V28.718H117.627V19.282ZM110.921 30.524H119.783V32.022H110.921V30.524ZM110.921 27.836H112.783V31.308H110.921V27.836ZM128.658 19.646C129.33 19.646 129.923 19.7767 130.436 20.038C130.959 20.29 131.37 20.64 131.668 21.088C131.976 21.5267 132.13 22.0353 132.13 22.614C132.13 23.1927 131.976 23.706 131.668 24.154C131.37 24.5927 130.959 24.938 130.436 25.19C129.923 25.442 129.33 25.568 128.658 25.568C128.005 25.568 127.417 25.442 126.894 25.19C126.372 24.938 125.956 24.5927 125.648 24.154C125.35 23.706 125.2 23.1927 125.2 22.614C125.2 22.0353 125.35 21.522 125.648 21.074C125.956 20.626 126.372 20.276 126.894 20.024C127.417 19.772 128.005 19.646 128.658 19.646ZM128.672 21.158C128.355 21.158 128.07 21.2187 127.818 21.34C127.566 21.452 127.366 21.6153 127.216 21.83C127.076 22.0447 127.006 22.306 127.006 22.614C127.006 22.922 127.076 23.188 127.216 23.412C127.366 23.6267 127.562 23.79 127.804 23.902C128.056 24.014 128.346 24.07 128.672 24.07C128.99 24.07 129.27 24.014 129.512 23.902C129.764 23.79 129.96 23.6267 130.1 23.412C130.25 23.188 130.324 22.922 130.324 22.614C130.324 22.306 130.25 22.0447 130.1 21.83C129.96 21.6153 129.764 21.452 129.512 21.34C129.26 21.2187 128.98 21.158 128.672 21.158ZM133.922 19.282H135.784V25.764H133.922V19.282ZM127.146 26.296H135.784V29.838H128.994V31.42H127.16V28.494H133.936V27.724H127.146V26.296ZM127.16 30.65H136.106V32.106H127.16V30.65ZM146.829 19.268H148.691V32.232H146.829V19.268ZM143.007 20.612H144.841C144.841 21.6013 144.743 22.5487 144.547 23.454C144.361 24.35 144.043 25.1947 143.595 25.988C143.157 26.7813 142.55 27.5187 141.775 28.2C141.01 28.872 140.053 29.488 138.905 30.048L137.925 28.578C139.176 27.9713 140.17 27.304 140.907 26.576C141.654 25.8387 142.191 25.008 142.517 24.084C142.844 23.1507 143.007 22.1053 143.007 20.948V20.612ZM138.625 20.612H143.875V22.096H138.625V20.612ZM150.776 25.092H162.508V26.436H150.776V25.092ZM152.092 27.094H161.122V30.174H153.954V31.28H152.106V28.998H159.288V28.354H152.092V27.094ZM152.106 30.874H161.486V32.134H152.106V30.874ZM152.204 19.492H161.08V22.558H154.066V23.608H152.232V21.382H159.246V20.752H152.204V19.492ZM152.232 23.23H161.318V24.49H152.232V23.23ZM168.625 19.464H170.459V20.318H175.527V19.464H177.375V23.818H168.625V19.464ZM170.459 21.676V22.432H175.527V21.676H170.459ZM167.127 24.63H178.859V26.1H167.127V24.63ZM172.041 23.216H173.903V25.008H172.041V23.216ZM168.471 26.758H177.431V30.062H170.333V31.238H168.485V28.774H175.597V28.116H168.471V26.758ZM168.485 30.762H177.781V32.162H168.485V30.762ZM188.393 19.646H190.017V20.262C190.017 20.7567 189.937 21.2373 189.779 21.704C189.629 22.1613 189.405 22.5907 189.107 22.992C188.808 23.3933 188.444 23.7527 188.015 24.07C187.585 24.3873 187.086 24.658 186.517 24.882C185.957 25.0967 185.341 25.26 184.669 25.372L183.941 23.874C184.538 23.7993 185.07 23.6733 185.537 23.496C186.013 23.3187 186.428 23.1087 186.783 22.866C187.147 22.6233 187.445 22.3573 187.679 22.068C187.912 21.7787 188.089 21.48 188.211 21.172C188.332 20.864 188.393 20.5607 188.393 20.262V19.646ZM188.743 19.646H190.367V20.262C190.367 20.5607 190.427 20.864 190.549 21.172C190.67 21.48 190.847 21.7787 191.081 22.068C191.314 22.3573 191.608 22.6233 191.963 22.866C192.327 23.1087 192.742 23.3187 193.209 23.496C193.685 23.6733 194.221 23.7993 194.819 23.874L194.091 25.372C193.409 25.26 192.789 25.0967 192.229 24.882C191.669 24.658 191.174 24.3873 190.745 24.07C190.315 23.7433 189.951 23.3793 189.653 22.978C189.354 22.5767 189.125 22.1473 188.967 21.69C188.817 21.2327 188.743 20.7567 188.743 20.262V19.646ZM188.393 27.486H190.255V32.246H188.393V27.486ZM183.507 26.31H195.239V27.822H183.507V26.31ZM202.784 27.15H204.184V27.584C204.184 28.2373 204.081 28.858 203.876 29.446C203.671 30.034 203.353 30.552 202.924 31C202.504 31.4573 201.953 31.8073 201.272 32.05L200.376 30.692C200.945 30.496 201.407 30.2347 201.762 29.908C202.117 29.5813 202.373 29.2173 202.532 28.816C202.7 28.4053 202.784 27.9947 202.784 27.584V27.15ZM203.246 27.15H204.576V27.584C204.576 27.9947 204.651 28.41 204.8 28.83C204.959 29.2407 205.197 29.6187 205.514 29.964C205.841 30.3093 206.27 30.5893 206.802 30.804L206.046 32.19C205.365 31.9287 204.819 31.5553 204.408 31.07C203.997 30.594 203.699 30.0527 203.512 29.446C203.335 28.83 203.246 28.2093 203.246 27.584V27.15ZM207.502 27.15H208.832V27.584C208.832 28.1813 208.739 28.7833 208.552 29.39C208.375 29.9967 208.081 30.5473 207.67 31.042C207.269 31.5367 206.727 31.9193 206.046 32.19L205.29 30.804C205.813 30.5707 206.237 30.2767 206.564 29.922C206.891 29.558 207.129 29.1753 207.278 28.774C207.427 28.3633 207.502 27.9667 207.502 27.584V27.15ZM207.936 27.15H209.336V27.584C209.336 28.0227 209.415 28.4473 209.574 28.858C209.742 29.2687 210.003 29.6327 210.358 29.95C210.713 30.2673 211.175 30.5147 211.744 30.692L210.848 32.05C210.167 31.8167 209.611 31.476 209.182 31.028C208.753 30.5893 208.435 30.076 208.23 29.488C208.034 28.8907 207.936 28.256 207.936 27.584V27.15ZM208.776 19.282H210.638V26.618H208.776V19.282ZM203.582 19.94C204.254 19.94 204.856 20.0753 205.388 20.346C205.92 20.6073 206.34 20.9713 206.648 21.438C206.956 21.9047 207.11 22.4413 207.11 23.048C207.11 23.6547 206.956 24.1913 206.648 24.658C206.34 25.1247 205.92 25.4933 205.388 25.764C204.856 26.0253 204.254 26.156 203.582 26.156C202.91 26.156 202.308 26.0253 201.776 25.764C201.244 25.4933 200.824 25.1247 200.516 24.658C200.208 24.1913 200.054 23.6547 200.054 23.048C200.054 22.4413 200.208 21.9047 200.516 21.438C200.824 20.9713 201.244 20.6073 201.776 20.346C202.308 20.0753 202.91 19.94 203.582 19.94ZM203.582 21.48C203.265 21.48 202.975 21.5453 202.714 21.676C202.453 21.7973 202.247 21.9747 202.098 22.208C201.949 22.432 201.874 22.712 201.874 23.048C201.874 23.3747 201.949 23.6593 202.098 23.902C202.247 24.1353 202.453 24.3127 202.714 24.434C202.975 24.5553 203.265 24.616 203.582 24.616C203.909 24.616 204.198 24.5553 204.45 24.434C204.711 24.3127 204.917 24.1353 205.066 23.902C205.215 23.6593 205.29 23.3747 205.29 23.048C205.29 22.712 205.215 22.432 205.066 22.208C204.917 21.9747 204.711 21.7973 204.45 21.676C204.198 21.5453 203.909 21.48 203.582 21.48ZM216.293 20.164C216.937 20.164 217.511 20.3553 218.015 20.738C218.528 21.1113 218.925 21.648 219.205 22.348C219.494 23.0387 219.639 23.8553 219.639 24.798C219.639 25.75 219.494 26.576 219.205 27.276C218.925 27.9667 218.528 28.5033 218.015 28.886C217.511 29.2593 216.937 29.446 216.293 29.446C215.649 29.446 215.075 29.2593 214.571 28.886C214.067 28.5033 213.67 27.9667 213.381 27.276C213.091 26.576 212.947 25.75 212.947 24.798C212.947 23.8553 213.091 23.0387 213.381 22.348C213.67 21.648 214.067 21.1113 214.571 20.738C215.075 20.3553 215.649 20.164 216.293 20.164ZM216.293 21.858C215.985 21.858 215.709 21.97 215.467 22.194C215.233 22.418 215.051 22.7493 214.921 23.188C214.79 23.6173 214.725 24.154 214.725 24.798C214.725 25.4327 214.79 25.974 214.921 26.422C215.051 26.8607 215.233 27.192 215.467 27.416C215.709 27.64 215.985 27.752 216.293 27.752C216.619 27.752 216.899 27.64 217.133 27.416C217.366 27.192 217.548 26.8607 217.679 26.422C217.809 25.974 217.875 25.4327 217.875 24.798C217.875 24.154 217.809 23.6173 217.679 23.188C217.548 22.7493 217.366 22.418 217.133 22.194C216.899 21.97 216.619 21.858 216.293 21.858ZM221.767 19.254H223.629V32.26H221.767V19.254ZM219.093 23.944H222.551V25.428H219.093V23.944ZM227.927 21.0469L227.729 28.0127H226.204L226.006 21.0469H227.927ZM225.951 30.1592C225.951 29.8903 226.042 29.6647 226.225 29.4824C226.411 29.2956 226.662 29.2021 226.977 29.2021C227.291 29.2021 227.539 29.2956 227.722 29.4824C227.909 29.6647 228.002 29.8903 228.002 30.1592C228.002 30.4235 227.909 30.6468 227.722 30.8291C227.539 31.0114 227.291 31.1025 226.977 31.1025C226.662 31.1025 226.411 31.0114 226.225 30.8291C226.042 30.6468 225.951 30.4235 225.951 30.1592Z" fill="white"/>
</svg>
