<svg width="41" height="40" viewBox="0 0 41 40" fill="none" xmlns="http://www.w3.org/2000/svg">
<path d="M30.005 0H10.995C5.19876 0 0.5 4.69876 0.5 10.495V29.505C0.5 35.3012 5.19876 40 10.995 40H30.005C35.8012 40 40.5 35.3012 40.5 29.505V10.495C40.5 4.69876 35.8012 0 30.005 0Z" fill="#E8EBED"/>
<path d="M26.3879 27.7596C26.7158 27.8787 27.0438 27.6048 26.9956 27.2666C26.5856 24.4299 23.8341 22.2363 20.4989 22.2363C17.1638 22.2363 14.4122 24.4275 14.0023 27.2618C13.954 27.6024 14.2844 27.8739 14.61 27.7549L17.7522 26.6092C19.503 25.9709 21.4274 25.9662 23.1805 26.5997L26.3855 27.7572L26.3879 27.7596Z" fill="#9EA4AA"/>
<path d="M13.8528 19.1364C14.592 19.1364 15.1912 18.1383 15.1912 16.9071C15.1912 15.6758 14.592 14.6777 13.8528 14.6777C13.1136 14.6777 12.5144 15.6758 12.5144 16.9071C12.5144 18.1383 13.1136 19.1364 13.8528 19.1364Z" fill="#9EA4AA"/>
<path d="M27.239 19.1364C27.9782 19.1364 28.5774 18.1383 28.5774 16.9071C28.5774 15.6758 27.9782 14.6777 27.239 14.6777C26.4999 14.6777 25.9006 15.6758 25.9006 16.9071C25.9006 18.1383 26.4999 19.1364 27.239 19.1364Z" fill="#9EA4AA"/>
<path d="M15.3695 15.288C14.5641 14.6807 12.6638 13.5636 9.56259 13.5588C9.40584 13.5588 9.25392 13.485 9.1671 13.3564C9.00553 13.1182 8.86566 12.7157 9.40825 12.4037C9.40825 12.4037 10.9251 11.5177 12.7169 12.1989C12.7169 12.1989 14.6943 13.1754 15.4901 14.4282C15.5263 14.483 15.5504 14.5449 15.5649 14.6092L15.6782 15.0879C15.7216 15.2666 15.5167 15.3976 15.3695 15.288Z" fill="#9EA4AA"/>
<path d="M25.6281 15.288C26.4335 14.6807 28.3338 13.5636 31.435 13.5588C31.5918 13.5588 31.7437 13.485 31.8305 13.3564C31.9921 13.1182 32.132 12.7157 31.5894 12.4037C31.5894 12.4037 30.0725 11.5177 28.2807 12.1989C28.2807 12.1989 26.3033 13.1754 25.5075 14.4282C25.4713 14.483 25.4472 14.5449 25.4327 14.6092L25.3194 15.0879C25.276 15.2666 25.481 15.3976 25.6281 15.288Z" fill="#9EA4AA"/>
</svg>
