<svg width="40" height="40" viewBox="0 0 40 40" fill="none" xmlns="http://www.w3.org/2000/svg">
<g clip-path="url(#clip0_411_27311)">
<path d="M29.3845 0H10.6155C4.75274 0 0 4.75274 0 10.6155V29.3845C0 35.2473 4.75274 40 10.6155 40H29.3845C35.2473 40 40 35.2473 40 29.3845V10.6155C40 4.75274 35.2473 0 29.3845 0Z" fill="#A5DA42"/>
<path d="M11.7321 21.5075C12.6284 21.5075 13.355 20.39 13.355 19.0116C13.355 17.6331 12.6284 16.5156 11.7321 16.5156C10.8358 16.5156 10.1091 17.6331 10.1091 19.0116C10.1091 20.39 10.8358 21.5075 11.7321 21.5075Z" fill="#343231"/>
<path d="M27.964 21.5075C28.8604 21.5075 29.587 20.39 29.587 19.0116C29.587 17.6331 28.8604 16.5156 27.964 16.5156C27.0677 16.5156 26.3411 17.6331 26.3411 19.0116C26.3411 20.39 27.0677 21.5075 27.964 21.5075Z" fill="#343231"/>
<path d="M25.6078 29.7404C26.9993 29.7404 27.9566 28.4237 27.3682 27.2734C26.1769 24.9342 23.3386 23.2871 20.0275 23.2871C16.7165 23.2871 13.8806 24.9342 12.6869 27.2734C12.1009 28.4237 13.0558 29.7404 14.4473 29.7404H25.6054H25.6078Z" fill="#343231"/>
<path d="M4.29242 15.1969C4.40093 15.3753 4.62038 15.5273 4.96523 15.6093C7.83977 16.2917 13.49 15.4212 13.953 12.115C14.0278 11.5724 13.7239 10.2533 12.8702 10.8802C11.9731 11.541 11.3582 12.4598 10.4322 13.1061C9.52302 13.7403 8.45953 14.0924 7.30682 14.0538C6.55925 14.0297 5.74657 13.8778 5.01346 14.0852C4.35512 14.2709 4.05367 14.799 4.29242 15.1945V15.1969Z" fill="#343231"/>
<path d="M35.7049 15.1969C35.5964 15.3753 35.377 15.5273 35.0321 15.6093C32.1576 16.2917 26.5074 15.4212 26.0444 12.115C25.9696 11.5724 26.2735 10.2533 27.1271 10.8802C28.0242 11.541 28.6392 12.4598 29.5652 13.1061C30.4743 13.7403 31.5378 14.0924 32.6905 14.0538C33.4381 14.0297 34.2508 13.8778 34.9839 14.0852C35.6422 14.2709 35.9437 14.799 35.7049 15.1945V15.1969Z" fill="#343231"/>
</g>
<defs>
<clipPath id="clip0_411_27311">
<rect width="40" height="40" fill="white"/>
</clipPath>
</defs>
</svg>
