<svg width="40" height="40" viewBox="0 0 40 40" fill="none" xmlns="http://www.w3.org/2000/svg">
<g clip-path="url(#clip0_400_24906)">
<path d="M29.3845 0H10.6155C4.75274 0 0 4.75274 0 10.6155V29.3845C0 35.2473 4.75274 40 10.6155 40H29.3845C35.2473 40 40 35.2473 40 29.3845V10.6155C40 4.75274 35.2473 0 29.3845 0Z" fill="#E8EBED"/>
<path d="M26.5534 28.5234H13.4443C13.0295 28.5234 12.6943 28.1882 12.6943 27.7734C12.6943 27.3586 13.0295 27.0234 13.4443 27.0234H26.5534C26.9682 27.0234 27.3034 27.3586 27.3034 27.7734C27.3034 28.1882 26.9682 28.5234 26.5534 28.5234Z" fill="#9EA4AA"/>
<path d="M16.7876 16.0768C17.2319 13.3397 15.3732 10.7607 12.6361 10.3164C9.89906 9.87213 7.32004 11.7308 6.87575 14.4679C6.43146 17.205 8.29014 19.784 11.0272 20.2283C13.7643 20.6726 16.3433 18.8139 16.7876 16.0768Z" fill="white"/>
<path d="M13.4191 16.8588C14.2968 15.9811 14.2968 14.558 13.4191 13.6803C12.5414 12.8026 11.1183 12.8026 10.2406 13.6803C9.3629 14.558 9.3629 15.9811 10.2406 16.8588C11.1183 17.7365 12.5414 17.7365 13.4191 16.8588Z" fill="#9EA4AA"/>
<path d="M31.7157 18.8198C33.6764 16.859 33.6764 13.68 31.7157 11.7193C29.7549 9.75855 26.5759 9.75855 24.6152 11.7193C22.6544 13.68 22.6544 16.859 24.6152 18.8198C26.5759 20.7805 29.7549 20.7805 31.7157 18.8198Z" fill="white"/>
<path d="M29.7546 16.8588C30.6323 15.9811 30.6323 14.558 29.7546 13.6803C28.8769 12.8026 27.4538 12.8026 26.5761 13.6803C25.6983 14.558 25.6983 15.9811 26.5761 16.8588C27.4538 17.7365 28.8769 17.7365 29.7546 16.8588Z" fill="#9EA4AA"/>
</g>
<defs>
<clipPath id="clip0_400_24906">
<rect width="40" height="40" fill="white"/>
</clipPath>
</defs>
</svg>
