<svg width="41" height="40" viewBox="0 0 41 40" fill="none" xmlns="http://www.w3.org/2000/svg">
<g filter="url(#filter0_d_400_24876)">
<g clip-path="url(#clip0_400_24876)">
<path d="M30.005 0H10.995C5.19876 0 0.5 4.69876 0.5 10.495V29.505C0.5 35.3012 5.19876 40 10.995 40H30.005C35.8012 40 40.5 35.3012 40.5 29.505V10.495C40.5 4.69876 35.8012 0 30.005 0Z" fill="#E8EBED"/>
<path d="M6.65439 15.8972C6.63992 15.8634 6.63028 15.8297 6.62304 15.7935C6.23961 13.64 10.3489 13.0902 11.668 13.505C12.3456 13.7172 13.0281 14.0886 13.5682 14.5492C13.778 14.7276 15.1189 16.406 14.1542 16.4277C14.012 16.4301 13.8817 16.3506 13.766 16.2662C12.8834 15.644 12.4155 14.7204 11.3038 14.4551C10.0836 14.1633 8.7476 14.5588 7.89392 15.4824C7.62383 15.7742 6.94619 16.6038 6.65439 15.8948V15.8972Z" fill="#9EA4AA"/>
<path d="M33.7792 15.8972C33.7937 15.8634 33.8033 15.8297 33.8105 15.7935C34.194 13.64 30.0847 13.0902 28.7656 13.505C28.088 13.7172 27.4055 14.0886 26.8653 14.5492C26.6555 14.7276 25.3147 16.406 26.2793 16.4277C26.4216 16.4301 26.5518 16.3506 26.6676 16.2662C27.5502 15.644 28.0181 14.7204 29.1298 14.4551C30.35 14.1633 31.686 14.5588 32.5397 15.4824C32.8098 15.7742 33.4874 16.6038 33.7792 15.8948V15.8972Z" fill="#9EA4AA"/>
<path d="M12.4492 23.4064C17.3904 25.1065 23.1347 25.0028 28.0662 23.3003C29.8556 22.6829 31.5654 21.8148 33.0653 20.6572C33.5332 20.2955 34.3917 19.5383 34.9391 20.2425C35.2526 20.6476 34.9897 21.3204 34.7727 21.7063C34.2494 22.6468 33.3209 23.3099 32.4745 23.9369C31.3628 24.7593 30.1257 25.4128 28.85 25.9409C26.6772 26.8356 24.3428 27.301 22.0036 27.4577C21.1234 27.518 20.2384 27.5325 19.3558 27.506C19.3293 27.506 19.3051 27.506 19.2786 27.506C18.0222 27.465 16.7682 27.3348 15.5311 27.1177C13.1726 26.7054 10.872 25.8951 8.78606 24.7183C8.55938 24.5904 8.3327 24.4578 8.10842 24.3204C7.36085 23.8646 6.6398 23.404 6.21055 22.6058C6.0538 22.3164 5.96699 21.9715 6.05863 21.6556C6.21538 21.1203 6.79414 20.9225 7.29815 21.031C8.09154 21.1998 8.73301 21.658 9.42753 22.0463C10.1606 22.4562 10.9227 22.818 11.704 23.1291C11.9524 23.2279 12.1984 23.3196 12.4492 23.404V23.4064Z" fill="#9EA4AA"/>
</g>
</g>
<defs>
<filter id="filter0_d_400_24876" x="0.5" y="0" width="40" height="40" filterUnits="userSpaceOnUse" color-interpolation-filters="sRGB">
<feFlood flood-opacity="0" result="BackgroundImageFix"/>
<feColorMatrix in="SourceAlpha" type="matrix" values="0 0 0 0 0 0 0 0 0 0 0 0 0 0 0 0 0 0 127 0" result="hardAlpha"/>
<feOffset/>
<feComposite in2="hardAlpha" operator="out"/>
<feColorMatrix type="matrix" values="0 0 0 0 0 0 0 0 0 0 0 0 0 0 0 0 0 0 0.25 0"/>
<feBlend mode="normal" in2="BackgroundImageFix" result="effect1_dropShadow_400_24876"/>
<feBlend mode="normal" in="SourceGraphic" in2="effect1_dropShadow_400_24876" result="shape"/>
</filter>
<clipPath id="clip0_400_24876">
<rect x="0.5" width="40" height="40" rx="10" fill="white"/>
</clipPath>
</defs>
</svg>
