<svg width="41" height="40" viewBox="0 0 41 40" fill="none" xmlns="http://www.w3.org/2000/svg">
<g clip-path="url(#clip0_400_24861)">
<path d="M29.8845 0H11.1155C5.25274 0 0.5 4.75274 0.5 10.6155V29.3845C0.5 35.2473 5.25274 40 11.1155 40H29.8845C35.7473 40 40.5 35.2473 40.5 29.3845V10.6155C40.5 4.75274 35.7473 0 29.8845 0Z" fill="#E8EBED"/>
<path d="M6.15018 23.173C4.80696 26.7276 3.60602 30.3376 2.4943 33.9694C2.43401 34.1671 2.37614 34.3793 2.44366 34.5747C2.54977 34.8858 2.90908 35.0136 3.22499 35.1004C5.14939 35.6213 7.10755 36.0216 9.085 36.2893C10.5488 36.487 11.3567 36.0602 11.6123 34.5964C11.9788 32.4911 11.8462 30.1785 12.003 28.0418C12.2007 25.3313 12.4443 22.6231 12.7312 19.9198C12.9603 17.7567 13.8237 14.9617 13.0954 12.8396C12.9049 12.2873 12.4129 11.793 11.8293 11.793C11.2457 11.793 10.7658 12.2705 10.4957 12.7865C8.78598 16.0686 7.46446 19.7124 6.155 23.173H6.15018Z" fill="white"/>
<path d="M13.4451 12.5165C13.8985 12.4514 14.306 12.215 14.6991 11.9811C15.2128 11.6773 15.7481 11.3517 16.0616 10.8429C16.2063 10.6089 16.2883 10.2858 16.1147 10.0712C15.9989 9.92648 15.8012 9.87825 15.6179 9.86137C14.3591 9.7408 13.122 10.6403 11.8897 10.3533C11.3591 10.2303 8.58347 8.8413 9.39374 10.4594C9.96045 11.5904 12.261 12.6829 13.4427 12.5141L13.4451 12.5165Z" fill="#9EA4AA"/>
<path d="M34.7871 22.874C36.1496 26.4214 37.3723 30.0242 38.5033 33.6512C38.5636 33.8489 38.6239 34.0611 38.5587 34.2565C38.4551 34.5675 38.0957 34.6978 37.7798 34.7846C35.8578 35.3175 33.9021 35.7275 31.927 36.0048C30.4657 36.2122 29.653 35.7878 29.3901 34.3264C29.0115 32.2235 29.1321 29.9085 28.9633 27.7743C28.7511 25.0637 28.493 22.358 28.1916 19.6571C27.9504 17.4939 27.0726 14.7062 27.7889 12.5768C27.977 12.0222 28.4665 11.5278 29.0501 11.5254C29.6337 11.523 30.116 11.9956 30.3885 12.5117C32.1151 15.7842 33.4584 19.4207 34.7847 22.874H34.7871Z" fill="white"/>
<path d="M27.2124 12.5165C26.759 12.4514 26.3515 12.215 25.9584 11.9811C25.4447 11.6773 24.9094 11.3517 24.5959 10.8429C24.4512 10.6089 24.3692 10.2858 24.5428 10.0712C24.6586 9.92648 24.8563 9.87825 25.0396 9.86137C26.2984 9.7408 27.5355 10.6403 28.7678 10.3533C29.2984 10.2303 32.074 8.8413 31.2638 10.4594C30.697 11.5904 28.3964 12.6829 27.2148 12.5141L27.2124 12.5165Z" fill="#9EA4AA"/>
<path d="M14.1034 28.5492C13.9853 26.0846 16.1918 24.2952 17.9908 22.9906C18.8035 22.3998 19.6499 21.6281 20.6917 21.4786C21.8661 21.3098 22.8259 22.1634 23.5542 22.9761C24.3042 23.8129 24.9939 24.7076 25.604 25.6529C26.2455 26.6441 26.8098 27.9125 26.272 28.964C25.8572 29.779 24.883 30.1745 23.969 30.1938C23.055 30.2131 22.1652 29.931 21.2777 29.7164C20.6001 29.5524 19.8718 29.4631 19.1652 29.55C18.8059 29.5958 18.4538 29.685 18.121 29.8249C17.7786 29.9671 17.4772 30.1818 17.1275 30.3096C16.5246 30.5314 15.8132 30.5435 15.2127 30.2879C14.6002 30.0274 14.2095 29.4752 14.13 28.8169C14.1179 28.7276 14.1107 28.636 14.1083 28.5492H14.1034Z" fill="#9EA4AA"/>
</g>
<defs>
<clipPath id="clip0_400_24861">
<rect width="40" height="40" fill="white" transform="translate(0.5)"/>
</clipPath>
</defs>
</svg>
