<svg width="34" height="29" viewBox="0 0 34 29" fill="none" xmlns="http://www.w3.org/2000/svg">
<path d="M27.5 20.6777H23.7125C23.4889 20.6778 23.2682 20.7264 23.0669 20.8197C22.8656 20.913 22.6889 21.0486 22.55 21.2164L18.1625 26.4605C18.022 26.6289 17.8437 26.7648 17.6409 26.8581C17.4381 26.9515 17.216 27 16.991 27C16.766 27 16.5439 26.9515 16.3411 26.8581C16.1383 26.7648 15.96 26.6289 15.8195 26.4605L11.432 21.2164C11.2929 21.0484 11.116 20.9127 10.9144 20.8194C10.7129 20.7261 10.4919 20.6776 10.268 20.6777H6.5C4.007 20.6777 2 18.7553 2 16.3674V6.31023C2 3.92236 4.007 2 6.5 2H27.5C29.9945 2 32 3.92236 32 6.31023V16.3674C32 18.7553 29.9945 20.6777 27.5 20.6777Z" stroke="white" stroke-width="3" stroke-miterlimit="10" stroke-linejoin="round"/>
</svg>
