<svg width="61" height="60" viewBox="0 0 61 60" fill="none" xmlns="http://www.w3.org/2000/svg">
    <circle cx="30.5" cy="30" r="30" fill="#E8EBED"/>
        <g clip-path="url(#clip0_1741_21558)">
            <path d="M25.6214 28.8147C25.3202 28.8147 25.0189 28.6979 24.7914 28.4611L18.5572 22.0618C18.0991 21.5913 18.0991 20.8242 18.5572 20.3538C19.0152 19.8834 19.7622 19.8834 20.2203 20.3538L26.4514 26.7531C26.9095 27.2235 26.9095 27.9907 26.4514 28.4611C26.2209 28.6979 25.9196 28.8147 25.6214 28.8147Z" fill="#9EA4AA"/>
            <path d="M19.3872 28.8147C19.0859 28.8147 18.7847 28.6979 18.5572 28.4611C18.0991 27.9907 18.0991 27.2235 18.5572 26.7531L24.7883 20.3538C25.2495 19.8834 25.9934 19.8834 26.4514 20.3538C26.9095 20.8242 26.9095 21.5913 26.4514 22.0618L20.2203 28.4611C19.9897 28.6979 19.6884 28.8147 19.3903 28.8147H19.3872Z" fill="#9EA4AA"/>
            <path d="M42.0801 28.8147C41.7788 28.8147 41.4776 28.6979 41.2501 28.4611L35.0189 22.0618C34.5609 21.5913 34.5609 20.8242 35.0189 20.3538C35.4769 19.8834 36.2239 19.8834 36.682 20.3538L42.9132 26.7531C43.3712 27.2235 43.3712 27.9907 42.9132 28.4611C42.6826 28.6979 42.3813 28.8147 42.0832 28.8147H42.0801Z" fill="#9EA4AA"/>
            <path d="M35.8489 28.8147C35.5476 28.8147 35.2464 28.6979 35.0189 28.4611C34.5609 27.9907 34.5609 27.2235 35.0189 26.7531L41.2501 20.3538C41.7081 19.8834 42.4551 19.8834 42.9132 20.3538C43.3712 20.8242 43.3712 21.5913 42.9132 22.0618L36.682 28.4611C36.4514 28.6979 36.1502 28.8147 35.852 28.8147H35.8489Z" fill="#9EA4AA"/>
            <path d="M41.3146 40.0001C40.3063 40.0001 39.1505 39.5202 37.8594 38.5605C36.7558 37.7396 35.8612 37.4303 35.4708 37.7365C35.3448 37.8344 35.2034 38.0427 35.0558 38.2606C34.8437 38.57 34.607 38.9235 34.2504 39.2329C32.9347 40.3758 31.121 40.0632 29.8637 39.3908C29.381 39.1319 28.9507 38.8288 28.5326 38.5352C28.0592 38.2037 27.6134 37.888 27.1554 37.6891C26.0518 37.2124 24.6746 37.3987 23.7309 38.1564C23.6018 38.2574 23.4696 38.3805 23.3312 38.51C22.9316 38.8762 22.4797 39.2898 21.8557 39.5423C20.0112 40.2937 18.4619 39.1445 17.2138 38.2227C16.516 37.7049 15.8581 37.2187 15.2218 37.0451C14.2719 36.7894 13.0915 37.4555 12.7933 38.4153C12.5965 39.0498 11.9356 39.4034 11.3177 39.2014C10.6998 38.9993 10.3555 38.3205 10.5523 37.686C11.2347 35.4855 13.6448 34.1248 15.8212 34.712C16.8787 34.9993 17.7856 35.6718 18.5879 36.2653C19.7807 37.1461 20.4047 37.5376 20.9857 37.3008C21.2224 37.2029 21.4868 36.963 21.7634 36.7073C21.9264 36.5589 22.0924 36.4074 22.2799 36.2558C23.8999 34.9551 26.1717 34.6457 28.0653 35.4666C28.7416 35.7602 29.3103 36.158 29.8575 36.5463C30.2326 36.8115 30.5861 37.0609 30.9457 37.2535C31.5421 37.5723 32.3445 37.7239 32.7256 37.3924C32.8486 37.285 32.9808 37.0893 33.1222 36.8841C33.3466 36.5557 33.6233 36.1453 34.0444 35.817C34.9636 35.1003 36.6113 34.6552 39.2335 36.6094C40.3709 37.4555 41.2532 37.7712 41.6559 37.4776C41.7788 37.3892 41.9202 37.2029 42.0709 37.0072C42.1815 36.8651 42.2922 36.7231 42.409 36.5873C43.4634 35.3782 45.1849 34.8699 46.9064 35.2614C48.6248 35.6528 49.9805 36.8588 50.4416 38.4121C50.6322 39.0498 50.2817 39.7254 49.6608 39.918C49.0429 40.1106 48.382 39.7539 48.1944 39.1161C47.9393 38.2542 47.1001 37.7807 46.4022 37.6197C45.7044 37.4618 44.7484 37.5281 44.1643 38.2006C44.0782 38.2984 44.0014 38.3995 43.9215 38.5037C43.6971 38.7973 43.4173 39.1603 43.0146 39.4508C42.5043 39.8202 41.9356 40.0033 41.3116 40.0033L41.3146 40.0001Z" fill="#9EA4AA"/>
        </g>
    <defs>
        <clipPath id="clip0_1741_21558">
            <rect width="40" height="20" fill="white" transform="translate(10.5 20)"/>
        </clipPath>
    </defs>
</svg>
