<svg width="61" height="60" viewBox="0 0 61 60" fill="none" xmlns="http://www.w3.org/2000/svg">
    <circle cx="30.5" cy="30" r="30" fill="#FF7410"/>
        <g clip-path="url(#clip0_1741_21546)">
            <path d="M21.7155 22.3243C22.3134 23.3405 22.6041 24.8021 21.7155 25.5741C20.9854 26.2076 19.8853 26.0195 18.9272 25.9073C16.5057 25.6335 14.0016 26.1317 11.8707 27.3129C11.732 27.3887 11.5932 27.4712 11.438 27.4976C11.1208 27.5537 10.7905 27.3689 10.6319 27.0885C10.3379 26.5771 10.6055 25.8909 11.0713 25.5246C11.5371 25.1584 12.1416 25.0363 12.7198 24.9242C15.1644 24.4523 17.7049 23.9805 20.1198 24.581C20.2355 24.6107 20.3577 24.6404 20.4733 24.6107C20.8598 24.5051 20.7574 23.9212 20.5295 23.5912C19.7234 22.4431 18.4185 21.737 17.0838 21.3015C15.9903 20.9452 12.918 20.8759 12.2407 19.9125C11.3422 18.6455 13.9388 17.956 14.8374 18.0022C17.3679 18.1441 20.4568 20.1896 21.7122 22.321L21.7155 22.3243Z" fill="black"/>
            <path d="M39.2843 22.3243C38.6863 23.3405 38.3956 24.8021 39.2843 25.5741C40.0144 26.2076 41.1145 26.0195 42.0725 25.9073C44.494 25.6335 46.9982 26.1317 49.129 27.3129C49.2677 27.3887 49.4065 27.4712 49.5618 27.4976C49.8789 27.5537 50.2093 27.3689 50.3678 27.0885C50.6619 26.5771 50.3943 25.8909 49.9285 25.5246C49.4627 25.1584 48.8581 25.0363 48.28 24.9242C45.8353 24.4523 43.2948 23.9805 40.8799 24.581C40.7643 24.6107 40.642 24.6404 40.5264 24.6107C40.1399 24.5051 40.2423 23.9212 40.4703 23.5912C41.2763 22.4431 42.5813 21.737 43.9159 21.3015C45.0094 20.9452 48.0817 20.8759 48.759 19.9125C49.6609 18.6455 47.0609 17.956 46.1624 18.0022C43.6318 18.1441 40.5429 20.1896 39.2876 22.321L39.2843 22.3243Z" fill="black"/>
            <path d="M38.8485 33.5078C39.9246 33.5078 40.7088 34.4638 40.4504 35.4514C39.3957 39.4877 35.1158 42.5078 30 42.5078C24.8842 42.5078 20.6074 39.4877 19.5495 35.4514C19.2912 34.4638 20.0754 33.5078 21.1515 33.5078H38.8455H38.8485Z" fill="black"/>
        </g>
    <defs>
        <clipPath id="clip0_1741_21546">
            <rect width="40" height="25" fill="white" transform="translate(10.5 18)"/>
        </clipPath>
    </defs>
</svg>
