<svg width="16" height="17" viewBox="0 0 16 17" fill="none" xmlns="http://www.w3.org/2000/svg">
    <g id="vuesax/bold/cake">
        <g id="cake">
            <path id="Vector" d="M13.9266 9.1665V9.83317H13.3466C12.8532 9.83317 12.4532 10.2332 12.4532 10.7332V10.9332C12.4532 11.4332 12.0532 11.8332 11.5532 11.8332C11.0599 11.8332 10.6599 11.4332 10.6599 10.9332V10.7332C10.6599 10.2332 10.2532 9.83317 9.75991 9.83317C9.26658 9.83317 8.86658 10.2332 8.86658 10.7332V10.9332C8.86658 11.4332 8.45991 11.8332 7.96658 11.8332C7.47324 11.8332 7.06658 11.4332 7.06658 10.9332V10.7332C7.06658 10.2332 6.66658 9.83317 6.17324 9.83317C5.67991 9.83317 5.27324 10.2332 5.27324 10.7332V10.9332C5.27324 11.4332 4.87324 11.8332 4.37991 11.8332C3.87991 11.8332 3.47991 11.4332 3.47991 10.9332V10.7198C3.47991 10.2265 3.08658 9.8265 2.59991 9.81984H2.07324V9.1665C2.07324 8.2465 2.76658 7.4665 3.70658 7.23984C3.89324 7.19317 4.08658 7.1665 4.29324 7.1665H11.7066C11.9132 7.1665 12.1066 7.19317 12.2932 7.23984C13.2332 7.4665 13.9266 8.2465 13.9266 9.1665Z" fill="white"/>
            <path id="Vector_2" d="M12.2932 5.28016V6.22016C12.0999 6.18016 11.9065 6.16683 11.7065 6.16683H4.29321C4.09321 6.16683 3.89988 6.18683 3.70654 6.22683V5.28016C3.70654 4.48016 4.42654 3.8335 5.31988 3.8335H10.6799C11.5732 3.8335 12.2932 4.48016 12.2932 5.28016Z" fill="white"/>
            <path id="Vector_3" d="M5.8335 2.86644V3.83977H5.32016C5.14683 3.83977 4.98683 3.85977 4.8335 3.89977V2.86644C4.8335 2.63311 5.06016 2.43311 5.3335 2.43311C5.60683 2.43311 5.8335 2.63311 5.8335 2.86644Z" fill="white"/>
            <path id="Vector_4" d="M11.1665 2.72021V3.90021C11.0132 3.85355 10.8532 3.83355 10.6798 3.83355H10.1665V2.72021C10.1665 2.44688 10.3932 2.22021 10.6665 2.22021C10.9398 2.22021 11.1665 2.44688 11.1665 2.72021Z" fill="white"/>
            <path id="Vector_5" d="M8.5 2.38016V3.8335H7.5V2.38016C7.5 2.08016 7.72667 1.8335 8 1.8335C8.27333 1.8335 8.5 2.08016 8.5 2.38016Z" fill="white"/>
            <path id="Vector_6" d="M14.6668 14.6665C14.6668 14.9398 14.4402 15.1665 14.1668 15.1665H1.8335C1.56016 15.1665 1.3335 14.9398 1.3335 14.6665C1.3335 14.3932 1.56016 14.1665 1.8335 14.1665H2.0735V10.8198H2.48016V10.8665C2.48016 11.7598 3.06683 12.5865 3.94016 12.7798C4.62016 12.9398 5.26683 12.7198 5.70683 12.2865C5.96016 12.0332 6.3735 12.0265 6.62683 12.2798C6.9735 12.6198 7.44683 12.8332 7.96683 12.8332C8.48683 12.8332 8.96016 12.6265 9.30683 12.2798C9.56016 12.0332 9.96683 12.0332 10.2268 12.2865C10.6602 12.7198 11.3068 12.9398 11.9935 12.7798C12.8668 12.5865 13.4535 11.7598 13.4535 10.8665V10.8332H13.9268V14.1665H14.1668C14.4402 14.1665 14.6668 14.3932 14.6668 14.6665Z" fill="white"/>
        </g>
    </g>
</svg>
