<svg width="45" height="45" viewBox="0 0 45 45" fill="none" xmlns="http://www.w3.org/2000/svg">
<g clip-path="url(#clip0_579_10207)">
<path d="M27.2128 24.3044C27.5968 24.6974 27.5938 25.3244 27.2038 25.7104C27.1298 25.7834 25.3638 27.5004 22.4998 27.5004C19.6358 27.5004 17.8698 25.7844 17.7958 25.7104C17.4038 25.3214 17.3998 24.6894 17.7888 24.2964C18.1788 23.9044 18.8098 23.9004 19.2038 24.2894C19.2498 24.3344 20.4838 25.4994 22.4998 25.4994C24.5158 25.4994 25.7498 24.3334 25.8018 24.2844C26.1978 23.9024 26.8298 23.9104 27.2128 24.3044ZM18.9998 21.5004C19.8278 21.5004 20.4998 20.8284 20.4998 20.0004C20.4998 19.1724 19.8278 18.5004 18.9998 18.5004C18.1718 18.5004 17.4998 19.1724 17.4998 20.0004C17.4998 20.8284 18.1718 21.5004 18.9998 21.5004ZM25.9998 18.5004C25.1718 18.5004 24.4998 19.1724 24.4998 20.0004C24.4998 20.8284 25.1718 21.5004 25.9998 21.5004C26.8278 21.5004 27.4998 20.8284 27.4998 20.0004C27.4998 19.1724 26.8278 18.5004 25.9998 18.5004ZM34.4998 22.8404V29.5004C34.4998 32.2574 32.2568 34.5004 29.4998 34.5004H23.5828C16.5818 34.5004 10.9708 29.7084 10.5288 23.3544C10.2888 19.8784 11.5558 16.4764 14.0078 14.0214C16.4618 11.5654 19.8708 10.2954 23.3358 10.5294C29.5968 10.9544 34.4998 16.3614 34.4998 22.8404ZM32.4998 22.8404C32.4998 17.4094 28.4148 12.8784 23.2008 12.5244C22.9718 12.5084 22.7428 12.5014 22.5138 12.5014C19.8578 12.5014 17.3048 13.5494 15.4228 15.4344C13.3798 17.4804 12.3228 20.3174 12.5248 23.2164C12.8968 28.5964 17.5478 32.5014 23.5828 32.5014H29.4998C31.1538 32.5014 32.4998 31.1554 32.4998 29.5014V22.8404Z" fill="#9EA4AA"/>
</g>
<defs>
<clipPath id="clip0_579_10207">
<rect width="24" height="24" fill="white" transform="translate(10.5 10.5)"/>
</clipPath>
</defs>
</svg>
