<svg width="29" height="29" viewBox="0 0 29 29" fill="none" xmlns="http://www.w3.org/2000/svg">
<path d="M26.9286 6.21429V19.6786H29V6.21429C29 5.11553 28.5635 4.06178 27.7866 3.28484C27.0096 2.50791 25.9559 2.07143 24.8571 2.07143H6.46596L8.53739 4.14286H24.8571C25.1293 4.14245 25.3988 4.19575 25.6503 4.2997C25.9018 4.40366 26.1303 4.55622 26.3228 4.74865C26.5152 4.94108 26.6678 5.1696 26.7717 5.4211C26.8757 5.6726 26.929 5.94215 26.9286 6.21429ZM29 27.5355L1.4645 0L0 1.4645L1.55771 3.02221C1.07315 3.40146 0.681128 3.88588 0.41127 4.43887C0.141412 4.99186 0.000779519 5.59896 0 6.21429V18.6429C0 19.7416 0.436478 20.7954 1.21341 21.5723C1.99035 22.3492 3.0441 22.7857 4.14286 22.7857H10.3571V20.7143H4.14286C3.87072 20.7147 3.60117 20.6614 3.34967 20.5574C3.09817 20.4535 2.86966 20.3009 2.67722 20.1085C2.48479 19.9161 2.33223 19.6875 2.22827 19.436C2.12432 19.1845 2.07102 18.915 2.07143 18.6429V6.21429C2.07254 5.86979 2.16041 5.53112 2.32695 5.22955C2.49349 4.92797 2.73331 4.67321 3.02429 4.48879L19.2487 20.7143H15.5357L11.3929 27.9643L13.1909 29L16.7423 22.7857H21.3202L27.5345 29L29 27.5355Z" fill="white"/>
</svg>
