<svg width="18" height="18" viewBox="0 0 18 18" fill="none" xmlns="http://www.w3.org/2000/svg">
<path d="M17.25 8.25H0.75C0.335786 8.25 0 8.58579 0 9C0 9.41421 0.335786 9.75 0.75 9.75H17.25C17.6642 9.75 18 9.41421 18 9C18 8.58579 17.6642 8.25 17.25 8.25Z" fill="#F7F8F9"/>
<path d="M17.25 3.75H0.75C0.335786 3.75 0 4.08579 0 4.5C0 4.91421 0.335786 5.25 0.75 5.25H17.25C17.6642 5.25 18 4.91421 18 4.5C18 4.08579 17.6642 3.75 17.25 3.75Z" fill="#F7F8F9"/>
<path d="M17.25 12.75H0.75C0.335786 12.75 0 13.0858 0 13.5C0 13.9142 0.335786 14.25 0.75 14.25H17.25C17.6642 14.25 18 13.9142 18 13.5C18 13.0858 17.6642 12.75 17.25 12.75Z" fill="#F7F8F9"/>
</svg>
