<svg width="145" height="220" viewBox="0 0 145 220" fill="none" xmlns="http://www.w3.org/2000/svg">
<g style="mix-blend-mode:multiply">
<path d="M72.4942 0L17.249 84.1345H72.4942H127.739L72.4942 0Z" fill="#FF5233"/>
</g>
<g style="mix-blend-mode:multiply">
<path d="M139.413 129.309C147.952 119.048 145.924 109.263 134.336 103.608C138.405 91.0807 132.805 82.7452 119.82 81.8434C118.909 68.8163 110.612 63.1983 98.1249 67.2808C92.5008 55.655 82.7466 53.6199 72.5066 62.1869C62.2787 53.6199 52.5245 55.655 46.8883 67.2808C34.401 63.1983 26.0924 68.8163 25.1935 81.8434C12.2082 82.7574 6.60834 91.0807 10.6776 103.608C-0.910736 109.251 -2.93931 119.036 5.60013 129.309C-2.93931 139.57 -0.910736 149.356 10.6776 155.01C6.60834 167.538 12.2082 175.873 25.1935 176.775C26.1045 189.802 34.401 195.42 46.8883 191.338C52.5124 202.963 62.2665 204.999 72.5066 196.432C82.7345 204.999 92.4886 202.963 98.1249 191.338C110.612 195.42 118.921 189.802 119.82 176.775C132.805 175.861 138.405 167.538 134.336 155.01C145.924 149.368 147.952 139.582 139.413 129.309Z" fill="#FFD836"/>
</g>
<g style="mix-blend-mode:multiply">
<path d="M121.483 187.012H23.5166V220H121.483V187.012Z" fill="#E36BAE"/>
</g>
<g style="mix-blend-mode:hard-light">
<g style="mix-blend-mode:hard-light">
<path d="M72.858 147.441C66.4686 147.441 64.1364 136.583 63.7963 130.855C63.7355 129.759 64.2093 128.784 64.8652 128.674C65.5212 128.576 80.1828 128.564 80.8387 128.674C81.4946 128.784 81.9684 129.759 81.9076 130.855C81.5675 136.595 79.2474 147.441 72.8459 147.441H72.858Z" fill="white"/>
</g>
</g>
<path d="M58.5729 124.202C58.5729 121.277 56.2042 118.901 53.2889 118.901C50.3736 118.901 48.0049 121.277 48.0049 124.202C48.0049 127.126 50.3736 129.503 53.2889 129.503C56.2042 129.503 58.5729 127.126 58.5729 124.202Z" fill="white"/>
<path d="M98.6833 124.202C98.6833 121.277 96.3146 118.901 93.3992 118.901C90.4839 118.901 88.1152 121.277 88.1152 124.202C88.1152 127.126 90.4839 129.503 93.3992 129.503C96.3146 129.503 98.6833 127.126 98.6833 124.202Z" fill="white"/>
<g style="mix-blend-mode:hard-light">
<path d="M56.8727 124.202C56.8727 121.277 54.504 118.901 51.5887 118.901C48.6734 118.901 46.3047 121.277 46.3047 124.202C46.3047 127.126 48.6734 129.503 51.5887 129.503C54.504 129.503 56.8727 127.126 56.8727 124.202Z" fill="#1D1D1B"/>
</g>
<g style="mix-blend-mode:hard-light">
<path d="M96.9821 124.202C96.9821 121.277 94.6134 118.901 91.6981 118.901C88.7828 118.901 86.4141 121.277 86.4141 124.202C86.4141 127.126 88.7828 129.503 91.6981 129.503C94.6134 129.503 96.9821 127.126 96.9821 124.202Z" fill="#1D1D1B"/>
</g>
<g style="mix-blend-mode:hard-light">
<path d="M71.6432 147.441C65.2538 147.441 62.9215 136.583 62.5814 130.856C62.5207 129.759 62.9944 128.784 63.6504 128.674C64.3063 128.577 78.9679 128.565 79.6239 128.674C80.2798 128.784 80.7535 129.759 80.6928 130.856C80.3527 136.595 78.0326 147.441 71.631 147.441H71.6432Z" fill="#1D1D1B"/>
</g>
<mask id="mask0_1713_6461" style="mask-type:luminance" maskUnits="userSpaceOnUse" x="0" y="0" width="145" height="220">
<path d="M134.335 103.62C137.493 93.8836 134.797 86.7058 127.363 83.5496L72.4939 0L17.6374 83.5496C10.1912 86.7058 7.49454 93.8836 10.6649 103.62C-0.923431 109.263 -2.952 119.048 5.58744 129.321C-2.952 139.582 -0.923431 149.368 10.6649 155.022C6.59565 167.55 12.1955 175.885 25.1808 176.787C25.4723 181.004 26.5534 184.428 28.2904 187.012H23.5166V220H121.483V187.012H116.709C118.447 184.428 119.515 181.004 119.819 176.787C132.804 175.873 138.404 167.55 134.335 155.022C145.923 149.38 147.952 139.595 139.412 129.321C147.952 119.061 145.923 109.275 134.335 103.62Z" fill="white"/>
</mask>
<g mask="url(#mask0_1713_6461)">
<path fill-rule="evenodd" clip-rule="evenodd" d="M74.8142 2.72872C74.547 2.46062 75.1786 2.08284 75.3244 2.21689C75.5916 2.48499 74.96 2.86277 74.8142 2.72872Z" fill="white"/>
<path fill-rule="evenodd" clip-rule="evenodd" d="M56.5935 3.75277C56.3262 3.48467 56.9579 3.10689 57.1037 3.24094C57.3709 3.50904 56.7392 3.88681 56.5935 3.75277Z" fill="white"/>
<path fill-rule="evenodd" clip-rule="evenodd" d="M54.0674 5.78803C54.1646 5.21527 54.5776 5.50774 54.5776 5.78803C54.4804 6.36079 54.0674 6.06832 54.0674 5.78803Z" fill="white"/>
<path fill-rule="evenodd" clip-rule="evenodd" d="M77.3406 5.78817C77.0733 5.52007 77.705 5.14229 77.8507 5.27634C78.118 5.54444 77.4863 5.92222 77.3406 5.78817Z" fill="white"/>
<path fill-rule="evenodd" clip-rule="evenodd" d="M97.5898 11.3691C97.687 10.7963 98.1 11.0888 98.1 11.3691C98.0028 11.9418 97.5898 11.6494 97.5898 11.3691Z" fill="white"/>
<path fill-rule="evenodd" clip-rule="evenodd" d="M57.1042 13.9036C56.837 13.6355 57.4686 13.2578 57.6144 13.3918C57.8816 13.6599 57.25 14.0377 57.1042 13.9036Z" fill="white"/>
<path fill-rule="evenodd" clip-rule="evenodd" d="M50.0095 14.4161C49.7423 14.148 50.3739 13.7702 50.5197 13.9043C50.7869 14.1724 50.1553 14.5501 50.0095 14.4161Z" fill="white"/>
<path fill-rule="evenodd" clip-rule="evenodd" d="M70.7695 15.9389C70.8667 15.3662 71.2797 15.6586 71.2797 15.9389C71.1825 16.5117 70.7695 16.2192 70.7695 15.9389Z" fill="white"/>
<path fill-rule="evenodd" clip-rule="evenodd" d="M97.0798 16.4505C96.8126 16.1824 97.4442 15.8046 97.59 15.9387C97.8572 16.2068 97.2256 16.5846 97.0798 16.4505Z" fill="white"/>
<path fill-rule="evenodd" clip-rule="evenodd" d="M97.5906 18.4743C97.3233 18.2062 97.955 17.8284 98.1007 17.9625C98.368 18.2306 97.7363 18.6084 97.5906 18.4743Z" fill="white"/>
<path fill-rule="evenodd" clip-rule="evenodd" d="M75.3242 21.0204C75.3364 20.5329 75.9437 20.6304 76.3324 20.5085C76.3203 20.996 75.7129 20.8985 75.3242 21.0204Z" fill="white"/>
<path fill-rule="evenodd" clip-rule="evenodd" d="M45.4548 23.5555C45.1876 23.2874 45.8192 22.9096 45.965 23.0437C46.2201 23.3118 45.6006 23.6895 45.4548 23.5555Z" fill="white"/>
<path fill-rule="evenodd" clip-rule="evenodd" d="M100.627 23.5554C100.724 22.9826 101.137 23.2751 101.137 23.5554C101.04 24.1281 100.627 23.8357 100.627 23.5554Z" fill="white"/>
<path fill-rule="evenodd" clip-rule="evenodd" d="M40.8992 24.0671C40.632 23.799 41.2636 23.4212 41.3972 23.5553C41.6645 23.8234 41.0328 24.2011 40.8992 24.0671Z" fill="white"/>
<path fill-rule="evenodd" clip-rule="evenodd" d="M81.8962 24.567C81.629 24.2989 82.2606 23.9211 82.4064 24.0551C82.6736 24.3232 82.042 24.701 81.8962 24.567Z" fill="white"/>
<path fill-rule="evenodd" clip-rule="evenodd" d="M86.9616 24.567C86.6944 24.2989 87.3261 23.9211 87.4718 24.0551C87.7391 24.3232 87.1074 24.701 86.9616 24.567Z" fill="white"/>
<path fill-rule="evenodd" clip-rule="evenodd" d="M91.5164 25.0789C91.2492 24.823 91.8808 24.433 92.0144 24.5792C92.2817 24.8473 91.65 25.2251 91.5164 25.0789Z" fill="white"/>
<path fill-rule="evenodd" clip-rule="evenodd" d="M62.6667 25.5783C62.3995 25.3102 63.0311 24.9325 63.1769 25.0665C63.4441 25.3346 62.8125 25.7124 62.6667 25.5783Z" fill="white"/>
<path fill-rule="evenodd" clip-rule="evenodd" d="M82.916 26.6022C83.0132 26.0295 83.4262 26.322 83.4262 26.6022C83.329 27.175 82.916 26.8825 82.916 26.6022Z" fill="white"/>
<path fill-rule="evenodd" clip-rule="evenodd" d="M42.9277 31.1719C43.0249 30.5992 43.4379 30.8917 43.4379 31.1719C43.3407 31.7447 42.9277 31.4522 42.9277 31.1719Z" fill="white"/>
<path fill-rule="evenodd" clip-rule="evenodd" d="M54.0671 32.1836C53.7999 31.9155 54.4315 31.5377 54.5773 31.6717C54.8445 31.9398 54.2129 32.3176 54.0671 32.1836Z" fill="white"/>
<path fill-rule="evenodd" clip-rule="evenodd" d="M90.5085 35.7418C90.2413 35.4737 90.8729 35.0959 91.0187 35.23C91.2859 35.4981 90.6543 35.8758 90.5085 35.7418Z" fill="white"/>
<path fill-rule="evenodd" clip-rule="evenodd" d="M61.1492 37.7649C60.882 37.509 61.5136 37.1191 61.6472 37.2531C61.9145 37.5212 61.2828 37.899 61.1492 37.7649Z" fill="white"/>
<path fill-rule="evenodd" clip-rule="evenodd" d="M97.0801 37.7645C97.1773 37.1917 97.5903 37.4842 97.5903 37.7645C97.4931 38.3372 97.0801 38.0448 97.0801 37.7645Z" fill="white"/>
<path fill-rule="evenodd" clip-rule="evenodd" d="M111.256 37.7645C111.353 37.1917 111.766 37.4842 111.766 37.7645C111.669 38.3372 111.256 38.0448 111.256 37.7645Z" fill="white"/>
<path fill-rule="evenodd" clip-rule="evenodd" d="M66.7126 40.312C66.4454 40.0561 67.077 39.6662 67.2228 39.8124C67.49 40.0805 66.8584 40.4583 66.7126 40.312Z" fill="white"/>
<path fill-rule="evenodd" clip-rule="evenodd" d="M34.3279 44.8813C34.0606 44.6132 34.6923 44.2354 34.838 44.3695C35.1053 44.6376 34.4736 45.0154 34.3279 44.8813Z" fill="white"/>
<path fill-rule="evenodd" clip-rule="evenodd" d="M56.5935 45.3815C56.3262 45.1256 56.9579 44.7357 57.1037 44.8697C57.3709 45.1378 56.7392 45.5156 56.5935 45.3815Z" fill="white"/>
<path fill-rule="evenodd" clip-rule="evenodd" d="M85.4431 47.4166C85.1759 47.1485 85.8075 46.7707 85.9533 46.9048C86.2205 47.1729 85.5889 47.5506 85.4431 47.4166Z" fill="white"/>
<path fill-rule="evenodd" clip-rule="evenodd" d="M38.8835 48.4279C38.6163 48.1598 39.2479 47.7821 39.3937 47.9161C39.6609 48.1842 39.0293 48.562 38.8835 48.4279Z" fill="white"/>
<path fill-rule="evenodd" clip-rule="evenodd" d="M89.488 49.9635C89.2208 49.6954 89.8524 49.3176 89.9982 49.4516C90.2654 49.7197 89.6338 50.0975 89.488 49.9635Z" fill="white"/>
<path fill-rule="evenodd" clip-rule="evenodd" d="M40.4011 51.4864C40.1339 51.2183 40.7655 50.8405 40.9113 50.9746C41.1664 51.2427 40.5469 51.6205 40.4011 51.4864Z" fill="white"/>
<path fill-rule="evenodd" clip-rule="evenodd" d="M99.6189 51.4864C99.3516 51.2183 99.9833 50.8405 100.129 50.9746C100.396 51.2427 99.7646 51.6205 99.6189 51.4864Z" fill="white"/>
<path fill-rule="evenodd" clip-rule="evenodd" d="M72.2878 53.5092C72.0206 53.2411 72.6522 52.8634 72.798 52.9974C73.0652 53.2655 72.4336 53.6433 72.2878 53.5092Z" fill="white"/>
<path fill-rule="evenodd" clip-rule="evenodd" d="M104.174 53.5092C103.906 53.2411 104.538 52.8634 104.672 52.9974C104.939 53.2655 104.307 53.6433 104.174 53.5092Z" fill="white"/>
<path fill-rule="evenodd" clip-rule="evenodd" d="M26.2253 54.5332C25.9581 54.2651 26.5897 53.8873 26.7355 54.0213C27.0027 54.2894 26.3711 54.6672 26.2253 54.5332Z" fill="white"/>
<path fill-rule="evenodd" clip-rule="evenodd" d="M18.1238 55.5451C17.8566 55.2892 18.4882 54.8992 18.6219 55.0454C18.8891 55.3135 18.2574 55.6913 18.1238 55.5451Z" fill="white"/>
<path fill-rule="evenodd" clip-rule="evenodd" d="M68.7412 55.5452C68.7412 55.0577 69.3607 55.1552 69.7494 55.0455C69.7494 55.5452 69.1299 55.4355 68.7412 55.5452Z" fill="white"/>
<path fill-rule="evenodd" clip-rule="evenodd" d="M32.2995 56.0445C32.0323 55.7764 32.664 55.3986 32.8097 55.5327C33.077 55.8008 32.4453 56.1786 32.2995 56.0445Z" fill="white"/>
<path fill-rule="evenodd" clip-rule="evenodd" d="M42.9277 55.5444H44.4461V56.5559H42.9277V55.5444Z" fill="white"/>
<path fill-rule="evenodd" clip-rule="evenodd" d="M81.8965 55.5444H82.9047V56.5559H81.8965V55.5444Z" fill="white"/>
<path fill-rule="evenodd" clip-rule="evenodd" d="M31.2907 57.58C31.0235 57.3119 31.6552 56.9342 31.8009 57.0682C32.0682 57.3363 31.4365 57.7141 31.2907 57.58Z" fill="white"/>
<path fill-rule="evenodd" clip-rule="evenodd" d="M47.4834 57.5798H48.4916V58.5913H47.4834V57.5798Z" fill="white"/>
<path fill-rule="evenodd" clip-rule="evenodd" d="M32.2995 58.5914C32.0323 58.3233 32.664 57.9455 32.8097 58.0796C33.077 58.3477 32.4453 58.7254 32.2995 58.5914Z" fill="white"/>
<path fill-rule="evenodd" clip-rule="evenodd" d="M17.115 59.103C16.8477 58.8349 17.4794 58.4571 17.6251 58.5912C17.8924 58.8593 17.2607 59.237 17.115 59.103Z" fill="white"/>
<path fill-rule="evenodd" clip-rule="evenodd" d="M85.9529 59.103C85.6856 58.8349 86.3173 58.4571 86.463 58.5912C86.7181 58.8593 86.0986 59.237 85.9529 59.103Z" fill="white"/>
<path fill-rule="evenodd" clip-rule="evenodd" d="M42.9277 60.1142C43.0249 59.5414 43.4379 59.8339 43.4379 60.1142C43.3407 60.687 42.9277 60.3945 42.9277 60.1142Z" fill="white"/>
<path fill-rule="evenodd" clip-rule="evenodd" d="M23.699 61.6383C23.4317 61.3702 24.0634 60.9924 24.2091 61.1264C24.4764 61.3945 23.8447 61.7723 23.699 61.6383Z" fill="white"/>
<path fill-rule="evenodd" clip-rule="evenodd" d="M58.1123 61.6381C58.2095 61.0654 58.6225 61.3578 58.6225 61.6381C58.5253 62.2109 58.1123 61.9184 58.1123 61.6381Z" fill="white"/>
<path fill-rule="evenodd" clip-rule="evenodd" d="M84.4346 62.1496C84.5317 61.5768 84.9447 61.8693 84.9447 62.1496C84.8476 62.7224 84.4346 62.4299 84.4346 62.1496Z" fill="white"/>
<path fill-rule="evenodd" clip-rule="evenodd" d="M91.5164 62.1497C91.2492 61.8816 91.8808 61.5039 92.0144 61.6379C92.2817 61.906 91.65 62.2838 91.5164 62.1497Z" fill="white"/>
<path fill-rule="evenodd" clip-rule="evenodd" d="M10.0339 64.1726C9.76668 63.9045 10.3983 63.5267 10.5441 63.6607C10.7992 63.9288 10.1797 64.3066 10.0339 64.1726Z" fill="white"/>
<path fill-rule="evenodd" clip-rule="evenodd" d="M72.7859 64.1726C72.5186 63.9045 73.1503 63.5267 73.296 63.6607C73.5633 63.9288 72.9316 64.3066 72.7859 64.1726Z" fill="white"/>
<path fill-rule="evenodd" clip-rule="evenodd" d="M44.4463 66.2078C44.5435 65.6351 44.9565 65.9275 44.9565 66.2078C44.8593 66.7806 44.4463 66.4881 44.4463 66.2078Z" fill="white"/>
<path fill-rule="evenodd" clip-rule="evenodd" d="M47.9939 66.7194C47.7266 66.4513 48.3583 66.0736 48.5041 66.2076C48.7591 66.4757 48.1396 66.8535 47.9939 66.7194Z" fill="white"/>
<path fill-rule="evenodd" clip-rule="evenodd" d="M71.7781 66.7194C71.5108 66.4513 72.1425 66.0736 72.2882 66.2076C72.5555 66.4757 71.9238 66.8535 71.7781 66.7194Z" fill="white"/>
<path fill-rule="evenodd" clip-rule="evenodd" d="M77.3406 66.7194C77.0733 66.4513 77.705 66.0736 77.8507 66.2076C78.118 66.4757 77.4863 66.8535 77.3406 66.7194Z" fill="white"/>
<path fill-rule="evenodd" clip-rule="evenodd" d="M116.321 66.7194C116.054 66.4513 116.685 66.0736 116.831 66.2076C117.086 66.4757 116.467 66.8535 116.321 66.7194Z" fill="white"/>
<path fill-rule="evenodd" clip-rule="evenodd" d="M33.3079 67.2192C33.4051 66.6464 33.8181 66.9389 33.8059 67.2192C33.7087 67.7919 33.2957 67.4995 33.3079 67.2192Z" fill="white"/>
<path fill-rule="evenodd" clip-rule="evenodd" d="M83.4148 67.2194C83.1475 66.9513 83.7792 66.5736 83.925 66.7076C84.18 66.9757 83.5605 67.3535 83.4148 67.2194Z" fill="white"/>
<path fill-rule="evenodd" clip-rule="evenodd" d="M74.3044 68.2311C74.0372 67.9752 74.6688 67.5853 74.8146 67.7193C75.0818 67.9874 74.4502 68.3652 74.3044 68.2311Z" fill="white"/>
<path fill-rule="evenodd" clip-rule="evenodd" d="M38.8835 68.2307C39.9888 68.1332 40.499 68.645 40.4019 69.754C39.9281 69.2056 38.5312 69.5956 38.8835 68.2307Z" fill="white"/>
<path fill-rule="evenodd" clip-rule="evenodd" d="M55.0749 68.7423C54.8077 68.4742 55.4393 68.0964 55.5851 68.2304C55.8523 68.4985 55.2207 68.8763 55.0749 68.7423Z" fill="white"/>
<path fill-rule="evenodd" clip-rule="evenodd" d="M20.6619 69.2548C20.3947 68.9867 21.0263 68.609 21.1599 68.743C21.4272 69.0111 20.7955 69.3889 20.6619 69.2548Z" fill="white"/>
<path fill-rule="evenodd" clip-rule="evenodd" d="M61.6592 69.2546C61.7564 68.6818 62.1694 68.9743 62.1694 69.2546C62.0722 69.8273 61.6592 69.5349 61.6592 69.2546Z" fill="white"/>
<path fill-rule="evenodd" clip-rule="evenodd" d="M138.587 69.7663C138.319 69.4982 138.951 69.1204 139.097 69.2545C139.364 69.5226 138.732 69.9004 138.587 69.7663Z" fill="white"/>
<path fill-rule="evenodd" clip-rule="evenodd" d="M45.4548 70.2662C45.1876 69.9981 45.8192 69.6203 45.965 69.7544C46.2201 70.0225 45.6006 70.4002 45.4548 70.2662Z" fill="white"/>
<path fill-rule="evenodd" clip-rule="evenodd" d="M16.1074 72.3015C16.2046 71.7287 16.6176 72.0212 16.6176 72.3015C16.5204 72.8742 16.1074 72.5817 16.1074 72.3015Z" fill="white"/>
<path fill-rule="evenodd" clip-rule="evenodd" d="M62.157 72.3006C61.8897 72.0325 62.5214 71.6547 62.6671 71.7888C62.9344 72.0569 62.3027 72.4347 62.157 72.3006Z" fill="white"/>
<path fill-rule="evenodd" clip-rule="evenodd" d="M12.0505 72.8131C11.7833 72.545 12.4149 72.1672 12.5607 72.3012C12.8279 72.5693 12.1963 72.9471 12.0505 72.8131Z" fill="white"/>
<path fill-rule="evenodd" clip-rule="evenodd" d="M77.3406 72.8131C77.0733 72.545 77.705 72.1672 77.8507 72.3012C78.118 72.5693 77.4863 72.9471 77.3406 72.8131Z" fill="white"/>
<path fill-rule="evenodd" clip-rule="evenodd" d="M119.358 73.3125C119.091 73.0566 119.723 72.6666 119.856 72.8129C120.123 73.081 119.492 73.4588 119.358 73.3125Z" fill="white"/>
<path fill-rule="evenodd" clip-rule="evenodd" d="M27.7439 73.8245C27.4766 73.5564 28.1083 73.1787 28.2541 73.3127C28.5091 73.5808 27.8896 73.9586 27.7439 73.8245Z" fill="white"/>
<path fill-rule="evenodd" clip-rule="evenodd" d="M127.448 73.8245C127.181 73.5564 127.812 73.1787 127.958 73.3127C128.225 73.5808 127.594 73.9586 127.448 73.8245Z" fill="white"/>
<path fill-rule="evenodd" clip-rule="evenodd" d="M48.4912 75.3475C48.4912 74.8479 49.1107 74.9576 49.4994 74.8357C49.4994 75.3353 48.8799 75.2257 48.4912 75.3475Z" fill="white"/>
<path fill-rule="evenodd" clip-rule="evenodd" d="M72.2878 76.3588C72.0206 76.0907 72.6522 75.713 72.798 75.847C73.0652 76.1151 72.4336 76.4929 72.2878 76.3588Z" fill="white"/>
<path fill-rule="evenodd" clip-rule="evenodd" d="M35.8465 76.8713C35.5792 76.6032 36.2109 76.2254 36.3445 76.3595C36.6117 76.6276 35.9801 77.0053 35.8465 76.8713Z" fill="white"/>
<path fill-rule="evenodd" clip-rule="evenodd" d="M48.491 79.4056C48.2238 79.1375 48.8554 78.7597 48.989 78.8938C49.2563 79.1619 48.6246 79.5396 48.491 79.4056Z" fill="white"/>
<path fill-rule="evenodd" clip-rule="evenodd" d="M68.2302 79.9172C67.963 79.6491 68.5946 79.2713 68.7404 79.4054C68.9955 79.6735 68.376 80.0512 68.2302 79.9172Z" fill="white"/>
<path fill-rule="evenodd" clip-rule="evenodd" d="M72.7861 79.9169C72.8833 79.3442 73.2963 79.6367 73.2963 79.9169C73.1991 80.4897 72.7861 80.1972 72.7861 79.9169Z" fill="white"/>
<path fill-rule="evenodd" clip-rule="evenodd" d="M135.04 81.441C134.773 81.1729 135.404 80.7951 135.55 80.9292C135.817 81.1973 135.186 81.575 135.04 81.441Z" fill="white"/>
<path fill-rule="evenodd" clip-rule="evenodd" d="M141.113 81.441C140.846 81.1729 141.477 80.7951 141.623 80.9292C141.89 81.1973 141.259 81.575 141.113 81.441Z" fill="white"/>
<path fill-rule="evenodd" clip-rule="evenodd" d="M74.3044 82.9639C74.0372 82.6958 74.6688 82.3181 74.8146 82.4521C75.0818 82.7202 74.4502 83.098 74.3044 82.9639Z" fill="white"/>
<path fill-rule="evenodd" clip-rule="evenodd" d="M109.738 82.9645C110.6 82.7817 110.697 83.3544 110.746 83.9759C110.321 83.8784 110.272 84.1709 110.236 84.4878C109.641 84.4025 109.811 83.5616 109.726 82.9645H109.738Z" fill="white"/>
<path fill-rule="evenodd" clip-rule="evenodd" d="M116.321 83.9754C116.054 83.7073 116.685 83.3295 116.831 83.4636C117.086 83.7317 116.467 84.1095 116.321 83.9754Z" fill="white"/>
<path fill-rule="evenodd" clip-rule="evenodd" d="M1.42161 84.4869C1.15437 84.2188 1.78602 83.841 1.93179 83.9751C2.19903 84.2432 1.56737 84.6209 1.42161 84.4869Z" fill="white"/>
<path fill-rule="evenodd" clip-rule="evenodd" d="M42.9284 85.4982C42.6612 85.2301 43.2929 84.8524 43.4386 84.9864C43.6937 85.2545 43.0742 85.6323 42.9284 85.4982Z" fill="white"/>
<path fill-rule="evenodd" clip-rule="evenodd" d="M75.3249 85.4982C75.0577 85.2301 75.6893 84.8524 75.8351 84.9864C76.1023 85.2545 75.4707 85.6323 75.3249 85.4982Z" fill="white"/>
<path fill-rule="evenodd" clip-rule="evenodd" d="M91.5164 85.4982C91.2492 85.2301 91.8808 84.8524 92.0144 84.9864C92.2817 85.2545 91.65 85.6323 91.5164 85.4982Z" fill="white"/>
<path fill-rule="evenodd" clip-rule="evenodd" d="M51.0303 86.5105H52.0385V87.522H51.0303V86.5105Z" fill="white"/>
<path fill-rule="evenodd" clip-rule="evenodd" d="M120.877 87.0222C120.609 86.7541 121.241 86.3763 121.387 86.5103C121.654 86.7784 121.022 87.1562 120.877 87.0222Z" fill="white"/>
<path fill-rule="evenodd" clip-rule="evenodd" d="M52.5488 88.545C52.646 87.9722 53.059 88.2647 53.059 88.545C52.9618 89.1177 52.5488 88.8253 52.5488 88.545Z" fill="white"/>
<path fill-rule="evenodd" clip-rule="evenodd" d="M5.9763 92.1035C5.70906 91.8354 6.34071 91.4576 6.48648 91.5916C6.75371 91.8597 6.12206 92.2375 5.9763 92.1035Z" fill="white"/>
<path fill-rule="evenodd" clip-rule="evenodd" d="M82.406 93.1148C82.1387 92.8467 82.7704 92.4689 82.9162 92.603C83.1834 92.8711 82.5517 93.2489 82.406 93.1148Z" fill="white"/>
<path fill-rule="evenodd" clip-rule="evenodd" d="M71.2676 94.1271C71.4862 93.396 71.7049 94.1759 72.2758 94.1271C72.1543 94.7608 71.2676 94.639 71.2676 94.1271Z" fill="white"/>
<path fill-rule="evenodd" clip-rule="evenodd" d="M62.6667 95.1502C62.3995 94.8821 63.0311 94.5044 63.1769 94.6384C63.4441 94.9065 62.8125 95.2843 62.6667 95.1502Z" fill="white"/>
<path fill-rule="evenodd" clip-rule="evenodd" d="M83.9246 96.6741C83.6574 96.4061 84.289 96.0283 84.4226 96.1623C84.6899 96.4304 84.0582 96.8082 83.9246 96.6741Z" fill="white"/>
<path fill-rule="evenodd" clip-rule="evenodd" d="M111.256 97.1856C110.988 96.9175 111.62 96.5398 111.766 96.6738C112.021 96.9419 111.401 97.3197 111.256 97.1856Z" fill="white"/>
<path fill-rule="evenodd" clip-rule="evenodd" d="M139.595 98.197C139.328 97.9289 139.96 97.5511 140.094 97.6852C140.361 97.9533 139.729 98.331 139.595 98.197Z" fill="white"/>
<path fill-rule="evenodd" clip-rule="evenodd" d="M105.182 99.2085C104.915 98.9404 105.547 98.5626 105.693 98.6966C105.96 98.9647 105.328 99.3425 105.182 99.2085Z" fill="white"/>
<path fill-rule="evenodd" clip-rule="evenodd" d="M138.587 101.243C138.319 100.987 138.951 100.597 139.097 100.744C139.364 101.012 138.732 101.39 138.587 101.243Z" fill="white"/>
<path fill-rule="evenodd" clip-rule="evenodd" d="M40.4011 101.743C40.1339 101.475 40.7655 101.097 40.9113 101.231C41.1664 101.499 40.5469 101.877 40.4011 101.743Z" fill="white"/>
<path fill-rule="evenodd" clip-rule="evenodd" d="M23.699 103.779C23.4317 103.523 24.0634 103.133 24.2091 103.279C24.4764 103.547 23.8447 103.925 23.699 103.779Z" fill="white"/>
<path fill-rule="evenodd" clip-rule="evenodd" d="M74.8142 103.779C74.547 103.523 75.1786 103.133 75.3244 103.279C75.5916 103.547 74.96 103.925 74.8142 103.779Z" fill="white"/>
<path fill-rule="evenodd" clip-rule="evenodd" d="M133.023 104.29C132.756 104.022 133.388 103.644 133.533 103.778C133.801 104.046 133.169 104.424 133.023 104.29Z" fill="white"/>
<path fill-rule="evenodd" clip-rule="evenodd" d="M134.542 104.29C134.275 104.022 134.906 103.644 135.04 103.778C135.307 104.046 134.675 104.424 134.542 104.29Z" fill="white"/>
<path fill-rule="evenodd" clip-rule="evenodd" d="M140.615 104.29C140.348 104.022 140.979 103.644 141.125 103.778C141.392 104.046 140.761 104.424 140.615 104.29Z" fill="white"/>
<path fill-rule="evenodd" clip-rule="evenodd" d="M8.00515 104.802C8.10232 104.229 8.51533 104.522 8.50318 104.802C8.406 105.375 7.993 105.082 8.00515 104.802Z" fill="white"/>
<path fill-rule="evenodd" clip-rule="evenodd" d="M94.5534 105.301C94.2862 105.033 94.9179 104.655 95.0636 104.789C95.3309 105.057 94.6992 105.435 94.5534 105.301Z" fill="white"/>
<path fill-rule="evenodd" clip-rule="evenodd" d="M125.432 105.302C125.529 104.729 125.942 105.022 125.942 105.302C125.845 105.875 125.432 105.582 125.432 105.302Z" fill="white"/>
<path fill-rule="evenodd" clip-rule="evenodd" d="M22.6784 106.313C22.4112 106.057 23.0429 105.667 23.1886 105.801C23.4437 106.069 22.8242 106.447 22.6784 106.313Z" fill="white"/>
<path fill-rule="evenodd" clip-rule="evenodd" d="M105.182 115.465C103.906 114.539 102.765 113.491 102.655 111.407C101.902 112.162 100.044 111.456 100.129 109.884C99.7034 109.786 99.6548 110.079 99.6184 110.395C98.9382 110.066 98.6831 109.311 98.6102 108.36C98.0879 108.689 98.0879 109.53 97.0918 109.372C97.2497 108.178 97.8935 107.471 97.602 105.813C99.4119 106.874 100.845 108.312 102.667 109.372C101.829 110.968 104.55 111.443 103.178 111.907C103.275 112.479 103.688 112.187 103.688 111.907C104.392 111.943 103.967 112.894 104.198 113.43C104.526 114.198 105.838 114.1 105.206 115.465H105.182Z" fill="white"/>
<path fill-rule="evenodd" clip-rule="evenodd" d="M140.105 106.825C140.372 106.045 140.639 106.788 140.615 107.336C140.348 108.116 140.093 107.373 140.105 106.825Z" fill="white"/>
<path fill-rule="evenodd" clip-rule="evenodd" d="M61.6589 107.337C61.3917 107.068 62.0233 106.691 62.1691 106.825C62.4363 107.093 61.8047 107.471 61.6589 107.337Z" fill="white"/>
<path fill-rule="evenodd" clip-rule="evenodd" d="M98.1006 109.36C98.5865 109.372 98.4893 109.982 98.6108 110.372C98.1249 110.359 98.2221 109.75 98.1006 109.36Z" fill="white"/>
<path fill-rule="evenodd" clip-rule="evenodd" d="M118.338 109.872C118.435 109.299 118.848 109.591 118.848 109.872C118.751 110.444 118.338 110.152 118.338 109.872Z" fill="white"/>
<path fill-rule="evenodd" clip-rule="evenodd" d="M136.06 110.383C135.793 110.115 136.425 109.737 136.57 109.871C136.838 110.14 136.206 110.517 136.06 110.383Z" fill="white"/>
<path fill-rule="evenodd" clip-rule="evenodd" d="M72.7859 111.906C72.5186 111.638 73.1503 111.26 73.296 111.394C73.5633 111.662 72.9316 112.04 72.7859 111.906Z" fill="white"/>
<path fill-rule="evenodd" clip-rule="evenodd" d="M35.8465 112.419C35.5792 112.151 36.2109 111.773 36.3445 111.907C36.6117 112.175 35.9801 112.553 35.8465 112.419Z" fill="white"/>
<path fill-rule="evenodd" clip-rule="evenodd" d="M44.446 112.918C44.1788 112.65 44.8104 112.272 44.9562 112.406C45.2234 112.674 44.5918 113.052 44.446 112.918Z" fill="white"/>
<path fill-rule="evenodd" clip-rule="evenodd" d="M96.072 113.43C95.8048 113.162 96.4364 112.784 96.5822 112.918C96.8373 113.186 96.2178 113.564 96.072 113.43Z" fill="white"/>
<path fill-rule="evenodd" clip-rule="evenodd" d="M59.6306 114.441C59.3634 114.173 59.995 113.796 60.1408 113.93C60.408 114.198 59.7764 114.576 59.6306 114.441Z" fill="white"/>
<path fill-rule="evenodd" clip-rule="evenodd" d="M55.0752 114.953C55.1724 114.38 55.5854 114.673 55.5854 114.953C55.4882 115.526 55.0752 115.233 55.0752 114.953Z" fill="white"/>
<path fill-rule="evenodd" clip-rule="evenodd" d="M18.6335 115.465C18.3663 115.196 18.9979 114.819 19.1437 114.953C19.4109 115.221 18.7793 115.599 18.6335 115.465Z" fill="white"/>
<path fill-rule="evenodd" clip-rule="evenodd" d="M56.5935 115.465C56.3262 115.196 56.9579 114.819 57.1037 114.953C57.3709 115.221 56.7392 115.599 56.5935 115.465Z" fill="white"/>
<path fill-rule="evenodd" clip-rule="evenodd" d="M10.532 115.964C10.2648 115.696 10.8964 115.319 11.0301 115.453C11.2973 115.721 10.6656 116.098 10.532 115.964Z" fill="white"/>
<path fill-rule="evenodd" clip-rule="evenodd" d="M54.0671 115.964C53.7999 115.696 54.4315 115.319 54.5773 115.453C54.8445 115.721 54.2129 116.098 54.0671 115.964Z" fill="white"/>
<path fill-rule="evenodd" clip-rule="evenodd" d="M89.9978 115.964C89.7305 115.696 90.3622 115.319 90.508 115.453C90.7752 115.721 90.1435 116.098 89.9978 115.964Z" fill="white"/>
<path fill-rule="evenodd" clip-rule="evenodd" d="M24.7077 116.976C24.4405 116.708 25.0722 116.33 25.2179 116.464C25.4852 116.732 24.8535 117.11 24.7077 116.976Z" fill="white"/>
<path fill-rule="evenodd" clip-rule="evenodd" d="M55.0749 116.976C54.8077 116.708 55.4393 116.33 55.5851 116.464C55.8523 116.732 55.2207 117.11 55.0749 116.976Z" fill="white"/>
<path fill-rule="evenodd" clip-rule="evenodd" d="M40.4011 117.488C40.1339 117.22 40.7655 116.842 40.9113 116.977C41.1664 117.245 40.5469 117.622 40.4011 117.488Z" fill="white"/>
<path fill-rule="evenodd" clip-rule="evenodd" d="M76.3328 117.488C76.0656 117.22 76.6972 116.842 76.8308 116.977C77.0981 117.245 76.4664 117.622 76.3328 117.488Z" fill="white"/>
<path fill-rule="evenodd" clip-rule="evenodd" d="M91.5169 117.488C91.614 116.915 92.027 117.208 92.0149 117.488C91.9177 118.061 91.5047 117.769 91.5169 117.488Z" fill="white"/>
<path fill-rule="evenodd" clip-rule="evenodd" d="M115.811 118C115.908 117.427 116.321 117.719 116.321 118C116.224 118.572 115.811 118.28 115.811 118Z" fill="white"/>
<path fill-rule="evenodd" clip-rule="evenodd" d="M119.358 118C119.091 117.732 119.723 117.354 119.856 117.488C120.123 117.756 119.492 118.134 119.358 118Z" fill="white"/>
<path fill-rule="evenodd" clip-rule="evenodd" d="M4.96848 118.511C4.70125 118.243 5.3329 117.865 5.47866 117.999C5.73375 118.268 5.11425 118.645 4.96848 118.511Z" fill="white"/>
<path fill-rule="evenodd" clip-rule="evenodd" d="M15.5975 118.511C15.3302 118.243 15.9619 117.865 16.0955 117.999C16.3627 118.268 15.7311 118.645 15.5975 118.511Z" fill="white"/>
<path fill-rule="evenodd" clip-rule="evenodd" d="M120.877 118.511C120.609 118.243 121.241 117.865 121.387 117.999C121.654 118.268 121.022 118.645 120.877 118.511Z" fill="white"/>
<path fill-rule="evenodd" clip-rule="evenodd" d="M-0.0969457 120.534C-0.364183 120.266 0.267469 119.888 0.413234 120.022C0.668324 120.29 0.04882 120.668 -0.0969457 120.534Z" fill="white"/>
<path fill-rule="evenodd" clip-rule="evenodd" d="M85.9529 121.047C85.6856 120.778 86.3173 120.401 86.463 120.535C86.7181 120.803 86.0986 121.181 85.9529 121.047Z" fill="white"/>
<path fill-rule="evenodd" clip-rule="evenodd" d="M0.923562 121.546C0.656325 121.29 1.28798 120.9 1.43374 121.034C1.70098 121.302 1.06933 121.68 0.923562 121.546Z" fill="white"/>
<path fill-rule="evenodd" clip-rule="evenodd" d="M15.0869 122.569C15.1841 121.997 15.5971 122.289 15.5971 122.569C15.4999 123.142 15.0869 122.85 15.0869 122.569Z" fill="white"/>
<path fill-rule="evenodd" clip-rule="evenodd" d="M103.664 122.057C105.243 121.826 105.28 123.142 105.182 124.592C103.603 124.824 103.567 123.508 103.664 122.057Z" fill="white"/>
<path fill-rule="evenodd" clip-rule="evenodd" d="M66.7126 123.081C66.4454 122.813 67.077 122.435 67.2228 122.569C67.49 122.837 66.8584 123.215 66.7126 123.081Z" fill="white"/>
<path fill-rule="evenodd" clip-rule="evenodd" d="M82.4062 124.593C82.4184 124.093 83.0258 124.203 83.4145 124.081C83.4023 124.58 82.795 124.471 82.4062 124.593Z" fill="white"/>
<path fill-rule="evenodd" clip-rule="evenodd" d="M101.137 124.592C100.87 124.324 101.502 123.946 101.648 124.081C101.903 124.349 101.283 124.726 101.137 124.592Z" fill="white"/>
<path fill-rule="evenodd" clip-rule="evenodd" d="M129.987 127.139C129.72 126.871 130.351 126.493 130.497 126.628C130.764 126.896 130.133 127.273 129.987 127.139Z" fill="white"/>
<path fill-rule="evenodd" clip-rule="evenodd" d="M82.9167 128.151C82.6495 127.883 83.2811 127.505 83.4269 127.639C83.6941 127.907 83.0625 128.285 82.9167 128.151Z" fill="white"/>
<path fill-rule="evenodd" clip-rule="evenodd" d="M128.967 129.162C128.699 128.907 129.331 128.517 129.477 128.651C129.732 128.919 129.112 129.296 128.967 129.162Z" fill="white"/>
<path fill-rule="evenodd" clip-rule="evenodd" d="M136.06 129.675C135.793 129.407 136.425 129.029 136.57 129.163C136.838 129.431 136.206 129.809 136.06 129.675Z" fill="white"/>
<path fill-rule="evenodd" clip-rule="evenodd" d="M22.1807 131.71C22.2778 131.137 22.6908 131.429 22.6908 131.71C22.5937 132.283 22.1807 131.99 22.1807 131.71Z" fill="white"/>
<path fill-rule="evenodd" clip-rule="evenodd" d="M63.6751 131.71C63.7722 131.137 64.1852 131.429 64.1731 131.71C64.0759 132.283 63.6629 131.99 63.6751 131.71Z" fill="white"/>
<path fill-rule="evenodd" clip-rule="evenodd" d="M34.8259 132.209C34.5587 131.941 35.1903 131.563 35.3361 131.697C35.6033 131.965 34.9717 132.343 34.8259 132.209Z" fill="white"/>
<path fill-rule="evenodd" clip-rule="evenodd" d="M73.8064 132.209C73.5392 131.941 74.1709 131.563 74.3045 131.697C74.5717 131.965 73.9401 132.343 73.8064 132.209Z" fill="white"/>
<path fill-rule="evenodd" clip-rule="evenodd" d="M41.4099 133.233C41.1427 132.965 41.7743 132.587 41.9201 132.721C42.1873 132.989 41.5557 133.367 41.4099 133.233Z" fill="white"/>
<path fill-rule="evenodd" clip-rule="evenodd" d="M31.7888 134.244C31.5216 133.988 32.1532 133.598 32.299 133.744C32.5662 134.012 31.9346 134.39 31.7888 134.244Z" fill="white"/>
<path fill-rule="evenodd" clip-rule="evenodd" d="M118.338 134.244C119.856 133.732 119.237 135.377 119.346 136.279C118.666 135.95 118.399 135.195 118.338 134.244Z" fill="white"/>
<path fill-rule="evenodd" clip-rule="evenodd" d="M131.505 134.756C131.237 134.488 131.869 134.11 132.015 134.244C132.27 134.512 131.65 134.89 131.505 134.756Z" fill="white"/>
<path fill-rule="evenodd" clip-rule="evenodd" d="M45.4551 135.268C45.5523 134.695 45.9653 134.988 45.9653 135.268C45.8681 135.841 45.4551 135.548 45.4551 135.268Z" fill="white"/>
<path fill-rule="evenodd" clip-rule="evenodd" d="M64.1855 135.768C64.4042 135.024 64.635 135.817 65.1938 135.768C65.0723 136.402 64.1855 136.28 64.1855 135.768Z" fill="white"/>
<path fill-rule="evenodd" clip-rule="evenodd" d="M76.3328 135.767C76.0656 135.499 76.6972 135.121 76.8308 135.255C77.0981 135.524 76.4664 135.901 76.3328 135.767Z" fill="white"/>
<path fill-rule="evenodd" clip-rule="evenodd" d="M121.374 136.279C121.593 135.536 121.823 136.328 122.382 136.279C122.261 136.913 121.374 136.791 121.374 136.279Z" fill="white"/>
<path fill-rule="evenodd" clip-rule="evenodd" d="M36.3445 136.779C36.0772 136.523 36.7089 136.133 36.8546 136.267C37.1219 136.535 36.4902 136.913 36.3445 136.779Z" fill="white"/>
<path fill-rule="evenodd" clip-rule="evenodd" d="M62.6667 136.779C62.3995 136.523 63.0311 136.133 63.1769 136.267C63.4441 136.535 62.8125 136.913 62.6667 136.779Z" fill="white"/>
<path fill-rule="evenodd" clip-rule="evenodd" d="M123.403 136.779C123.136 136.523 123.767 136.133 123.913 136.267C124.18 136.535 123.549 136.913 123.403 136.779Z" fill="white"/>
<path fill-rule="evenodd" clip-rule="evenodd" d="M47.4834 137.291C47.5806 136.718 47.9936 137.011 47.9936 137.291C47.8964 137.864 47.4834 137.571 47.4834 137.291Z" fill="white"/>
<path fill-rule="evenodd" clip-rule="evenodd" d="M102.655 137.291C102.752 136.718 103.165 137.011 103.165 137.291C103.068 137.864 102.655 137.571 102.655 137.291Z" fill="white"/>
<path fill-rule="evenodd" clip-rule="evenodd" d="M0.923562 137.803C0.656325 137.535 1.28798 137.157 1.43374 137.291C1.70098 137.559 1.06933 137.937 0.923562 137.803Z" fill="white"/>
<path fill-rule="evenodd" clip-rule="evenodd" d="M53.0466 137.803C52.7794 137.535 53.411 137.157 53.5568 137.291C53.8119 137.559 53.1924 137.937 53.0466 137.803Z" fill="white"/>
<path fill-rule="evenodd" clip-rule="evenodd" d="M30.781 138.314C30.5138 138.046 31.1455 137.668 31.2791 137.802C31.5463 138.07 30.9147 138.448 30.781 138.314Z" fill="white"/>
<path fill-rule="evenodd" clip-rule="evenodd" d="M81.8962 138.814C81.629 138.546 82.2606 138.168 82.4064 138.302C82.6736 138.57 82.042 138.948 81.8962 138.814Z" fill="white"/>
<path fill-rule="evenodd" clip-rule="evenodd" d="M67.2222 139.825C67.4895 139.045 67.7567 139.789 67.7324 140.337C67.4652 141.117 67.1979 140.374 67.2222 139.825Z" fill="white"/>
<path fill-rule="evenodd" clip-rule="evenodd" d="M5.47831 140.337C5.21107 140.069 5.84272 139.691 5.97634 139.825C6.24358 140.093 5.61193 140.471 5.47831 140.337Z" fill="white"/>
<path fill-rule="evenodd" clip-rule="evenodd" d="M73.8064 140.337C73.5392 140.069 74.1709 139.691 74.3045 139.825C74.5717 140.093 73.9401 140.471 73.8064 140.337Z" fill="white"/>
<path fill-rule="evenodd" clip-rule="evenodd" d="M29.2624 140.849C28.9952 140.581 29.6268 140.204 29.7726 140.338C30.0398 140.606 29.4082 140.983 29.2624 140.849Z" fill="white"/>
<path fill-rule="evenodd" clip-rule="evenodd" d="M77.8513 141.361C77.5841 141.093 78.2157 140.715 78.3615 140.849C78.6287 141.117 77.9971 141.495 77.8513 141.361Z" fill="white"/>
<path fill-rule="evenodd" clip-rule="evenodd" d="M89.488 141.361C89.2208 141.093 89.8524 140.715 89.9982 140.849C90.2654 141.117 89.6338 141.495 89.488 141.361Z" fill="white"/>
<path fill-rule="evenodd" clip-rule="evenodd" d="M44.446 141.86C44.1788 141.604 44.8104 141.214 44.9562 141.361C45.2234 141.629 44.5918 142.007 44.446 141.86Z" fill="white"/>
<path fill-rule="evenodd" clip-rule="evenodd" d="M144.661 141.861C144.442 142.482 144.017 142.909 143.142 142.872C142.9 141.787 143.871 141.909 144.661 141.861Z" fill="white"/>
<path fill-rule="evenodd" clip-rule="evenodd" d="M29.2622 142.372C30.2947 143.262 30.2583 141.994 31.2908 142.884C31.1936 144.359 28.8856 144.115 29.2622 142.372Z" fill="white"/>
<path fill-rule="evenodd" clip-rule="evenodd" d="M109.227 142.884C108.96 142.616 109.592 142.238 109.725 142.372C109.993 142.64 109.361 143.018 109.227 142.884Z" fill="white"/>
<path fill-rule="evenodd" clip-rule="evenodd" d="M25.2175 143.384C24.9503 143.116 25.5819 142.738 25.7277 142.872C25.9828 143.14 25.3633 143.518 25.2175 143.384Z" fill="white"/>
<path fill-rule="evenodd" clip-rule="evenodd" d="M99.1084 144.395H100.117V145.406H99.1084V144.395Z" fill="white"/>
<path fill-rule="evenodd" clip-rule="evenodd" d="M35.8465 145.931C35.5792 145.663 36.2109 145.285 36.3445 145.419C36.6117 145.687 35.9801 146.065 35.8465 145.931Z" fill="white"/>
<path fill-rule="evenodd" clip-rule="evenodd" d="M108.219 145.931C107.952 145.663 108.584 145.285 108.73 145.419C108.997 145.687 108.365 146.065 108.219 145.931Z" fill="white"/>
<path fill-rule="evenodd" clip-rule="evenodd" d="M92.0264 146.43C92.1235 145.858 92.5365 146.15 92.5365 146.43C92.4394 147.003 92.0264 146.711 92.0264 146.43Z" fill="white"/>
<path fill-rule="evenodd" clip-rule="evenodd" d="M130.485 146.431C130.218 146.163 130.849 145.785 130.995 145.919C131.263 146.187 130.631 146.565 130.485 146.431Z" fill="white"/>
<path fill-rule="evenodd" clip-rule="evenodd" d="M7.49512 146.43H8.50333V147.442H7.49512V146.43Z" fill="white"/>
<path fill-rule="evenodd" clip-rule="evenodd" d="M42.9277 146.943C42.9277 146.455 43.5472 146.553 43.9359 146.443C43.9359 146.943 43.3164 146.833 42.9277 146.943Z" fill="white"/>
<path fill-rule="evenodd" clip-rule="evenodd" d="M34.3281 147.442C34.4496 146.809 35.3363 146.93 35.3363 147.442C35.1177 148.186 34.8869 147.394 34.3281 147.442Z" fill="white"/>
<path fill-rule="evenodd" clip-rule="evenodd" d="M38.8835 149.989C38.6163 149.721 39.2479 149.343 39.3937 149.477C39.6609 149.745 39.0293 150.123 38.8835 149.989Z" fill="white"/>
<path fill-rule="evenodd" clip-rule="evenodd" d="M75.8221 151C75.4091 150.732 74.9961 150.464 74.3037 150.489C74.4616 149.087 76.065 149.416 75.8221 151Z" fill="white"/>
<path fill-rule="evenodd" clip-rule="evenodd" d="M84.9333 151C84.6661 150.732 85.2977 150.354 85.4435 150.488C85.7107 150.757 85.0791 151.134 84.9333 151Z" fill="white"/>
<path fill-rule="evenodd" clip-rule="evenodd" d="M127.448 151.512C127.181 151.244 127.812 150.866 127.958 151C128.225 151.268 127.594 151.646 127.448 151.512Z" fill="white"/>
<path fill-rule="evenodd" clip-rule="evenodd" d="M130.485 152.012C130.218 151.756 130.849 151.366 130.995 151.5C131.263 151.768 130.631 152.146 130.485 152.012Z" fill="white"/>
<path fill-rule="evenodd" clip-rule="evenodd" d="M11.0417 152.523C10.7745 152.255 11.4061 151.877 11.5519 152.011C11.8191 152.28 11.1875 152.657 11.0417 152.523Z" fill="white"/>
<path fill-rule="evenodd" clip-rule="evenodd" d="M34.8259 153.036C34.5587 152.768 35.1903 152.39 35.3361 152.524C35.6033 152.792 34.9717 153.17 34.8259 153.036Z" fill="white"/>
<path fill-rule="evenodd" clip-rule="evenodd" d="M58.112 153.036C57.8448 152.768 58.4765 152.39 58.6222 152.524C58.8773 152.792 58.2578 153.17 58.112 153.036Z" fill="white"/>
<path fill-rule="evenodd" clip-rule="evenodd" d="M55.0749 154.047C54.8077 153.779 55.4393 153.401 55.5851 153.535C55.8523 153.803 55.2207 154.181 55.0749 154.047Z" fill="white"/>
<path fill-rule="evenodd" clip-rule="evenodd" d="M118.847 154.047C118.58 153.779 119.212 153.401 119.358 153.535C119.613 153.803 118.993 154.181 118.847 154.047Z" fill="white"/>
<path fill-rule="evenodd" clip-rule="evenodd" d="M8.51536 156.082C8.24812 155.814 8.87977 155.437 9.02554 155.571C9.29278 155.839 8.66112 156.217 8.51536 156.082Z" fill="white"/>
<path fill-rule="evenodd" clip-rule="evenodd" d="M57.1042 156.082C56.837 155.814 57.4686 155.437 57.6144 155.571C57.8816 155.839 57.25 156.217 57.1042 156.082Z" fill="white"/>
<path fill-rule="evenodd" clip-rule="evenodd" d="M6.9968 157.093C6.72957 156.837 7.36122 156.448 7.50698 156.594C7.77422 156.862 7.14257 157.24 6.9968 157.093Z" fill="white"/>
<path fill-rule="evenodd" clip-rule="evenodd" d="M52.5486 157.093C52.2813 156.837 52.913 156.448 53.0587 156.594C53.326 156.862 52.6943 157.24 52.5486 157.093Z" fill="white"/>
<path fill-rule="evenodd" clip-rule="evenodd" d="M72.2881 157.094C72.3853 156.521 72.7983 156.814 72.7983 157.094C72.7011 157.667 72.2881 157.374 72.2881 157.094Z" fill="white"/>
<path fill-rule="evenodd" clip-rule="evenodd" d="M88.99 157.093C88.7228 156.837 89.3544 156.448 89.4881 156.594C89.7553 156.862 89.1236 157.24 88.99 157.093Z" fill="white"/>
<path fill-rule="evenodd" clip-rule="evenodd" d="M42.4177 159.128C42.1505 158.86 42.7821 158.482 42.9279 158.617C43.1951 158.885 42.5635 159.262 42.4177 159.128Z" fill="white"/>
<path fill-rule="evenodd" clip-rule="evenodd" d="M4.45774 159.629C4.1905 159.373 4.82216 158.983 4.96792 159.117C5.23516 159.385 4.60351 159.763 4.45774 159.629Z" fill="white"/>
<path fill-rule="evenodd" clip-rule="evenodd" d="M13.5681 160.652C13.3009 160.384 13.9325 160.006 14.0783 160.14C14.3455 160.409 13.7139 160.786 13.5681 160.652Z" fill="white"/>
<path fill-rule="evenodd" clip-rule="evenodd" d="M36.3445 160.652C36.0772 160.384 36.7089 160.006 36.8546 160.14C37.1219 160.409 36.4902 160.786 36.3445 160.652Z" fill="white"/>
<path fill-rule="evenodd" clip-rule="evenodd" d="M40.8996 160.14C41.9928 160.055 41.1304 161.944 41.3976 162.675C43.1832 163.662 43.657 162.431 45.4426 162.163C44.7259 165.307 38.215 163.296 40.8874 160.128L40.8996 160.14Z" fill="white"/>
<path fill-rule="evenodd" clip-rule="evenodd" d="M20.6619 162.675C20.3947 162.407 21.0263 162.029 21.1599 162.163C21.4272 162.431 20.7955 162.809 20.6619 162.675Z" fill="white"/>
<path fill-rule="evenodd" clip-rule="evenodd" d="M94.5534 162.675C94.2862 162.407 94.9179 162.029 95.0636 162.163C95.3309 162.431 94.6992 162.809 94.5534 162.675Z" fill="white"/>
<path fill-rule="evenodd" clip-rule="evenodd" d="M129.477 162.675C129.574 162.102 129.987 162.395 129.975 162.675C129.878 163.248 129.465 162.955 129.477 162.675Z" fill="white"/>
<path fill-rule="evenodd" clip-rule="evenodd" d="M138.587 162.675C138.319 162.407 138.951 162.029 139.097 162.163C139.364 162.431 138.732 162.809 138.587 162.675Z" fill="white"/>
<path fill-rule="evenodd" clip-rule="evenodd" d="M85.9529 163.187C85.6856 162.919 86.3173 162.541 86.463 162.675C86.7181 162.943 86.0986 163.321 85.9529 163.187Z" fill="white"/>
<path fill-rule="evenodd" clip-rule="evenodd" d="M108.729 163.187C108.462 162.919 109.094 162.541 109.239 162.675C109.494 162.943 108.875 163.321 108.729 163.187Z" fill="white"/>
<path fill-rule="evenodd" clip-rule="evenodd" d="M110.745 164.21C110.842 163.638 111.255 163.93 111.255 164.21C111.158 164.783 110.745 164.491 110.745 164.21Z" fill="white"/>
<path fill-rule="evenodd" clip-rule="evenodd" d="M26.7361 164.71C26.4688 164.454 27.1005 164.064 27.2462 164.21C27.5135 164.478 26.8818 164.856 26.7361 164.71Z" fill="white"/>
<path fill-rule="evenodd" clip-rule="evenodd" d="M84.9326 165.222C85.0298 164.649 85.4428 164.942 85.4428 165.222C85.3456 165.795 84.9326 165.502 84.9326 165.222Z" fill="white"/>
<path fill-rule="evenodd" clip-rule="evenodd" d="M129.476 165.222C129.209 164.954 129.841 164.576 129.974 164.71C130.242 164.978 129.61 165.356 129.476 165.222Z" fill="white"/>
<path fill-rule="evenodd" clip-rule="evenodd" d="M143.142 165.733C142.875 165.465 143.507 165.088 143.652 165.222C143.92 165.49 143.288 165.868 143.142 165.733Z" fill="white"/>
<path fill-rule="evenodd" clip-rule="evenodd" d="M38.8835 166.233C38.6163 165.965 39.2479 165.587 39.3937 165.722C39.6609 165.99 39.0293 166.367 38.8835 166.233Z" fill="white"/>
<path fill-rule="evenodd" clip-rule="evenodd" d="M118.847 166.233C118.58 165.965 119.212 165.587 119.358 165.722C119.613 165.99 118.993 166.367 118.847 166.233Z" fill="white"/>
<path fill-rule="evenodd" clip-rule="evenodd" d="M74.8142 167.756C74.547 167.488 75.1786 167.11 75.3244 167.244C75.5916 167.513 74.96 167.89 74.8142 167.756Z" fill="white"/>
<path fill-rule="evenodd" clip-rule="evenodd" d="M125.93 167.756C126.027 167.183 126.44 167.476 126.44 167.756C126.343 168.329 125.93 168.036 125.93 167.756Z" fill="white"/>
<path fill-rule="evenodd" clip-rule="evenodd" d="M133.521 167.756C133.254 167.488 133.886 167.11 134.031 167.244C134.299 167.513 133.667 167.89 133.521 167.756Z" fill="white"/>
<path fill-rule="evenodd" clip-rule="evenodd" d="M16.6055 168.269C16.7026 167.696 17.1156 167.988 17.1156 168.269C17.0185 168.841 16.6055 168.549 16.6055 168.269Z" fill="white"/>
<path fill-rule="evenodd" clip-rule="evenodd" d="M82.9167 168.269C82.6495 168.001 83.2811 167.623 83.4269 167.757C83.6941 168.025 83.0625 168.403 82.9167 168.269Z" fill="white"/>
<path fill-rule="evenodd" clip-rule="evenodd" d="M135.551 168.269C135.283 168.001 135.915 167.623 136.061 167.757C136.328 168.025 135.696 168.403 135.551 168.269Z" fill="white"/>
<path fill-rule="evenodd" clip-rule="evenodd" d="M74.8142 168.78C74.547 168.512 75.1786 168.134 75.3244 168.269C75.5916 168.537 74.96 168.914 74.8142 168.78Z" fill="white"/>
<path fill-rule="evenodd" clip-rule="evenodd" d="M131.505 168.78C131.237 168.512 131.869 168.134 132.015 168.269C132.27 168.537 131.65 168.914 131.505 168.78Z" fill="white"/>
<path fill-rule="evenodd" clip-rule="evenodd" d="M47.4831 169.28C47.2159 169.012 47.8475 168.634 47.9933 168.768C48.2605 169.037 47.6289 169.414 47.4831 169.28Z" fill="white"/>
<path fill-rule="evenodd" clip-rule="evenodd" d="M130.995 169.792C131.117 169.158 132.003 169.28 132.003 169.792C131.785 170.535 131.554 169.743 130.995 169.792Z" fill="white"/>
<path fill-rule="evenodd" clip-rule="evenodd" d="M42.9284 170.292C42.6612 170.023 43.2929 169.646 43.4386 169.78C43.6937 170.048 43.0742 170.426 42.9284 170.292Z" fill="white"/>
<path fill-rule="evenodd" clip-rule="evenodd" d="M5.9763 170.803C5.70906 170.535 6.34071 170.157 6.48648 170.291C6.75371 170.559 6.12206 170.937 5.9763 170.803Z" fill="white"/>
<path fill-rule="evenodd" clip-rule="evenodd" d="M58.6219 170.803C58.3546 170.535 58.9863 170.157 59.1199 170.291C59.3871 170.559 58.7555 170.937 58.6219 170.803Z" fill="white"/>
<path fill-rule="evenodd" clip-rule="evenodd" d="M40.4011 171.827C40.1339 171.559 40.7655 171.181 40.9113 171.315C41.1664 171.583 40.5469 171.961 40.4011 171.827Z" fill="white"/>
<path fill-rule="evenodd" clip-rule="evenodd" d="M2.93925 172.327C2.67201 172.071 3.30366 171.681 3.43728 171.827C3.70452 172.095 3.07287 172.473 2.93925 172.327Z" fill="white"/>
<path fill-rule="evenodd" clip-rule="evenodd" d="M10.0339 172.327C9.76668 172.071 10.3983 171.681 10.5441 171.827C10.7992 172.095 10.1797 172.473 10.0339 172.327Z" fill="white"/>
<path fill-rule="evenodd" clip-rule="evenodd" d="M100.117 172.327C99.8497 172.071 100.481 171.681 100.627 171.827C100.894 172.095 100.263 172.473 100.117 172.327Z" fill="white"/>
<path fill-rule="evenodd" clip-rule="evenodd" d="M103.154 172.327C102.887 172.071 103.518 171.681 103.664 171.827C103.931 172.095 103.3 172.473 103.154 172.327Z" fill="white"/>
<path fill-rule="evenodd" clip-rule="evenodd" d="M25.2175 172.839C24.9503 172.57 25.5819 172.193 25.7277 172.327C25.9828 172.595 25.3633 172.973 25.2175 172.839Z" fill="white"/>
<path fill-rule="evenodd" clip-rule="evenodd" d="M60.1411 172.838C61.8417 171.607 58.9142 174.544 60.1411 172.838Z" fill="white"/>
<path fill-rule="evenodd" clip-rule="evenodd" d="M104.672 172.839C104.404 172.57 105.036 172.193 105.182 172.327C105.449 172.595 104.817 172.973 104.672 172.839Z" fill="white"/>
<path fill-rule="evenodd" clip-rule="evenodd" d="M142.632 173.35C142.364 173.082 142.996 172.704 143.142 172.838C143.409 173.106 142.777 173.484 142.632 173.35Z" fill="white"/>
<path fill-rule="evenodd" clip-rule="evenodd" d="M20.6624 173.85C20.7595 173.277 21.1726 173.57 21.1604 173.85C21.0632 174.423 20.6502 174.13 20.6624 173.85Z" fill="white"/>
<path fill-rule="evenodd" clip-rule="evenodd" d="M0.923562 175.885C0.656325 175.617 1.28798 175.239 1.43374 175.374C1.70098 175.642 1.06933 176.019 0.923562 175.885Z" fill="white"/>
<path fill-rule="evenodd" clip-rule="evenodd" d="M97.0798 175.885C96.8126 175.617 97.4442 175.239 97.59 175.374C97.8572 175.642 97.2256 176.019 97.0798 175.885Z" fill="white"/>
<path fill-rule="evenodd" clip-rule="evenodd" d="M51.0303 176.396C52.3422 174.654 52.245 179.004 51.0303 176.396Z" fill="white"/>
<path fill-rule="evenodd" clip-rule="evenodd" d="M141.114 175.884C142.814 175.36 141.903 177.469 142.122 178.419C141.016 178.346 141.041 177.14 141.114 175.884Z" fill="white"/>
<path fill-rule="evenodd" clip-rule="evenodd" d="M1.4209 176.897C1.51808 176.324 1.93108 176.616 1.93108 176.897C1.8339 177.469 1.4209 177.177 1.4209 176.897Z" fill="white"/>
<path fill-rule="evenodd" clip-rule="evenodd" d="M5.47831 176.897C5.21107 176.629 5.84272 176.251 5.97634 176.385C6.24358 176.653 5.61193 177.031 5.47831 176.897Z" fill="white"/>
<path fill-rule="evenodd" clip-rule="evenodd" d="M35.8465 176.897C35.5792 176.629 36.2109 176.251 36.3445 176.385C36.6117 176.653 35.9801 177.031 35.8465 176.897Z" fill="white"/>
<path fill-rule="evenodd" clip-rule="evenodd" d="M110.746 176.897C110.479 176.629 111.11 176.251 111.256 176.385C111.523 176.653 110.892 177.031 110.746 176.897Z" fill="white"/>
<path fill-rule="evenodd" clip-rule="evenodd" d="M40.8994 178.42C40.8994 177.932 41.5189 178.03 41.9076 177.908C41.9076 178.395 41.2881 178.298 40.8994 178.42Z" fill="white"/>
<path fill-rule="evenodd" clip-rule="evenodd" d="M87.9695 180.455C87.7022 180.187 88.3339 179.809 88.4796 179.943C88.7469 180.211 88.1152 180.589 87.9695 180.455Z" fill="white"/>
<path fill-rule="evenodd" clip-rule="evenodd" d="M96.0723 180.455C96.0723 179.956 96.6918 180.065 97.0805 179.943C97.0805 180.443 96.461 180.333 96.0723 180.455Z" fill="white"/>
<path fill-rule="evenodd" clip-rule="evenodd" d="M14.0788 180.967C13.8116 180.698 14.4432 180.321 14.589 180.455C14.8563 180.723 14.2246 181.101 14.0788 180.967Z" fill="white"/>
<path fill-rule="evenodd" clip-rule="evenodd" d="M32.8093 180.967C32.5421 180.698 33.1737 180.321 33.3195 180.455C33.5746 180.723 32.9551 181.101 32.8093 180.967Z" fill="white"/>
<path fill-rule="evenodd" clip-rule="evenodd" d="M120.877 180.967C120.609 180.698 121.241 180.321 121.387 180.455C121.654 180.723 121.022 181.101 120.877 180.967Z" fill="white"/>
<path fill-rule="evenodd" clip-rule="evenodd" d="M31.7888 181.467C31.5216 181.198 32.1532 180.821 32.299 180.955C32.5662 181.223 31.9346 181.601 31.7888 181.467Z" fill="white"/>
<path fill-rule="evenodd" clip-rule="evenodd" d="M33.8181 181.978C33.5509 181.71 34.1825 181.332 34.3283 181.466C34.5955 181.734 33.9639 182.112 33.8181 181.978Z" fill="white"/>
<path fill-rule="evenodd" clip-rule="evenodd" d="M97.0798 181.978C96.8126 181.71 97.4442 181.332 97.59 181.466C97.8572 181.734 97.2256 182.112 97.0798 181.978Z" fill="white"/>
<path fill-rule="evenodd" clip-rule="evenodd" d="M126.95 181.978C126.683 181.71 127.314 181.332 127.448 181.466C127.715 181.734 127.084 182.112 126.95 181.978Z" fill="white"/>
<path fill-rule="evenodd" clip-rule="evenodd" d="M9.52317 182.477C9.25593 182.221 9.88759 181.831 10.0334 181.965C10.3006 182.234 9.66894 182.611 9.52317 182.477Z" fill="white"/>
<path fill-rule="evenodd" clip-rule="evenodd" d="M22.1804 182.477C21.9132 182.221 22.5448 181.831 22.6906 181.965C22.9578 182.234 22.3262 182.611 22.1804 182.477Z" fill="white"/>
<path fill-rule="evenodd" clip-rule="evenodd" d="M74.8142 182.477C74.547 182.221 75.1786 181.831 75.3244 181.965C75.5916 182.234 74.96 182.611 74.8142 182.477Z" fill="white"/>
<path fill-rule="evenodd" clip-rule="evenodd" d="M8.51562 182.989C8.6128 182.416 9.02581 182.709 9.02581 182.989C8.92863 183.562 8.51562 183.269 8.51562 182.989Z" fill="white"/>
<path fill-rule="evenodd" clip-rule="evenodd" d="M31.7888 182.989C31.5216 182.721 32.1532 182.344 32.299 182.478C32.5662 182.746 31.9346 183.124 31.7888 182.989Z" fill="white"/>
<path fill-rule="evenodd" clip-rule="evenodd" d="M46.9734 182.989C46.7061 182.721 47.3378 182.344 47.4835 182.478C47.7508 182.746 47.1191 183.124 46.9734 182.989Z" fill="white"/>
<path fill-rule="evenodd" clip-rule="evenodd" d="M57.1042 182.989C56.837 182.721 57.4686 182.344 57.6144 182.478C57.8816 182.746 57.25 183.124 57.1042 182.989Z" fill="white"/>
<path fill-rule="evenodd" clip-rule="evenodd" d="M110.248 183.501C109.981 183.233 110.612 182.855 110.758 182.989C111.025 183.257 110.394 183.635 110.248 183.501Z" fill="white"/>
<path fill-rule="evenodd" clip-rule="evenodd" d="M29.7732 184.013C29.5059 183.745 30.1376 183.368 30.2834 183.502C30.5506 183.77 29.9189 184.147 29.7732 184.013Z" fill="white"/>
<path fill-rule="evenodd" clip-rule="evenodd" d="M119.358 184.013C119.091 183.745 119.723 183.368 119.856 183.502C120.123 183.77 119.492 184.147 119.358 184.013Z" fill="white"/>
<path fill-rule="evenodd" clip-rule="evenodd" d="M19.6423 186.548C19.3751 186.28 20.0067 185.902 20.1525 186.036C20.4197 186.304 19.7881 186.682 19.6423 186.548Z" fill="white"/>
<path fill-rule="evenodd" clip-rule="evenodd" d="M56.5938 186.036C57.6748 185.793 57.5534 186.768 57.602 187.56C57.189 187.462 57.0918 187.048 56.5938 187.06V186.049V186.036Z" fill="white"/>
<path fill-rule="evenodd" clip-rule="evenodd" d="M136.06 186.548C135.793 186.28 136.425 185.902 136.57 186.036C136.838 186.304 136.206 186.682 136.06 186.548Z" fill="white"/>
<path fill-rule="evenodd" clip-rule="evenodd" d="M38.8835 189.595C38.6163 189.326 39.2479 188.949 39.3937 189.083C39.6609 189.351 39.0293 189.729 38.8835 189.595Z" fill="white"/>
<path fill-rule="evenodd" clip-rule="evenodd" d="M40.4011 189.595C40.1339 189.326 40.7655 188.949 40.9113 189.083C41.1664 189.351 40.5469 189.729 40.4011 189.595Z" fill="white"/>
<path fill-rule="evenodd" clip-rule="evenodd" d="M131.505 192.129C131.237 191.861 131.869 191.483 132.015 191.617C132.27 191.885 131.65 192.263 131.505 192.129Z" fill="white"/>
<path fill-rule="evenodd" clip-rule="evenodd" d="M33.8178 192.13C35.1904 192.581 33.3926 194.384 32.8096 193.141C32.931 192.593 33.8178 192.8 33.8178 192.13Z" fill="white"/>
<path fill-rule="evenodd" clip-rule="evenodd" d="M55.585 192.641C55.6821 192.068 56.0951 192.361 56.0951 192.641C55.998 193.214 55.585 192.921 55.585 192.641Z" fill="white"/>
<path fill-rule="evenodd" clip-rule="evenodd" d="M20.6619 193.14C20.3947 192.872 21.0263 192.494 21.1599 192.628C21.4272 192.896 20.7955 193.274 20.6619 193.14Z" fill="white"/>
<path fill-rule="evenodd" clip-rule="evenodd" d="M34.8259 193.14C34.5587 192.872 35.1903 192.494 35.3361 192.628C35.6033 192.896 34.9717 193.274 34.8259 193.14Z" fill="white"/>
<path fill-rule="evenodd" clip-rule="evenodd" d="M141.113 193.14C140.846 192.872 141.477 192.494 141.623 192.628C141.89 192.896 141.259 193.274 141.113 193.14Z" fill="white"/>
<path fill-rule="evenodd" clip-rule="evenodd" d="M21.6706 193.653C21.4034 193.385 22.035 193.007 22.1808 193.141C22.448 193.409 21.8164 193.787 21.6706 193.653Z" fill="white"/>
<path fill-rule="evenodd" clip-rule="evenodd" d="M23.6989 194.165C24.124 192.556 24.367 195.067 24.209 195.688C23.7839 197.297 23.541 194.786 23.6989 194.165Z" fill="white"/>
<path fill-rule="evenodd" clip-rule="evenodd" d="M115.301 194.164C115.033 193.896 115.665 193.518 115.811 193.652C116.078 193.921 115.446 194.298 115.301 194.164Z" fill="white"/>
<path fill-rule="evenodd" clip-rule="evenodd" d="M35.8465 195.688C35.5792 195.42 36.2109 195.042 36.3445 195.176C36.6117 195.444 35.9801 195.822 35.8465 195.688Z" fill="white"/>
<path fill-rule="evenodd" clip-rule="evenodd" d="M41.4099 195.688C41.1427 195.42 41.7743 195.042 41.9201 195.176C42.1873 195.444 41.5557 195.822 41.4099 195.688Z" fill="white"/>
<path fill-rule="evenodd" clip-rule="evenodd" d="M41.9197 196.7C41.6524 196.431 42.2841 196.054 42.4298 196.188C42.6971 196.456 42.0654 196.834 41.9197 196.7Z" fill="white"/>
<path fill-rule="evenodd" clip-rule="evenodd" d="M136.558 196.7C136.291 196.431 136.923 196.054 137.069 196.188C137.324 196.456 136.704 196.834 136.558 196.7Z" fill="white"/>
<path fill-rule="evenodd" clip-rule="evenodd" d="M119.358 197.71C119.091 197.454 119.723 197.064 119.856 197.198C120.123 197.467 119.492 197.844 119.358 197.71Z" fill="white"/>
<path fill-rule="evenodd" clip-rule="evenodd" d="M63.1775 198.734C62.9102 198.466 63.5419 198.088 63.6877 198.222C63.9427 198.49 63.3232 198.868 63.1775 198.734Z" fill="white"/>
<path fill-rule="evenodd" clip-rule="evenodd" d="M35.8465 199.745C35.5792 199.477 36.2109 199.1 36.3445 199.234C36.6117 199.502 35.9801 199.879 35.8465 199.745Z" fill="white"/>
<path fill-rule="evenodd" clip-rule="evenodd" d="M42.9284 199.745C42.6612 199.477 43.2929 199.1 43.4386 199.234C43.6937 199.502 43.0742 199.879 42.9284 199.745Z" fill="white"/>
<path fill-rule="evenodd" clip-rule="evenodd" d="M5.47831 200.257C5.21107 200.001 5.84272 199.611 5.97634 199.758C6.24358 200.026 5.61193 200.404 5.47831 200.257Z" fill="white"/>
<path fill-rule="evenodd" clip-rule="evenodd" d="M65.7038 200.257C65.4366 200.001 66.0682 199.611 66.214 199.758C66.4691 200.026 65.8496 200.404 65.7038 200.257Z" fill="white"/>
<path fill-rule="evenodd" clip-rule="evenodd" d="M94.5534 200.757C94.2862 200.489 94.9179 200.111 95.0636 200.245C95.3309 200.513 94.6992 200.891 94.5534 200.757Z" fill="white"/>
<path fill-rule="evenodd" clip-rule="evenodd" d="M22.1804 201.269C21.9132 201.001 22.5448 200.623 22.6906 200.757C22.9578 201.026 22.3262 201.403 22.1804 201.269Z" fill="white"/>
<path fill-rule="evenodd" clip-rule="evenodd" d="M42.4177 201.269C42.1505 201.001 42.7821 200.623 42.9279 200.757C43.1951 201.026 42.5635 201.403 42.4177 201.269Z" fill="white"/>
<path fill-rule="evenodd" clip-rule="evenodd" d="M32.2995 201.781C32.0323 201.513 32.664 201.135 32.8097 201.269C33.077 201.537 32.4453 201.915 32.2995 201.781Z" fill="white"/>
<path fill-rule="evenodd" clip-rule="evenodd" d="M135.039 201.78C135.307 201.001 135.574 201.744 135.55 202.292C135.282 203.072 135.027 202.329 135.039 201.78Z" fill="white"/>
<path fill-rule="evenodd" clip-rule="evenodd" d="M58.1123 203.304C58.2338 202.67 59.1205 202.792 59.1205 203.304C58.6711 203.621 58.2216 203.913 58.1123 203.304Z" fill="white"/>
<path fill-rule="evenodd" clip-rule="evenodd" d="M8.51508 203.816C10.2157 202.585 7.28821 205.522 8.51508 203.816Z" fill="white"/>
<path fill-rule="evenodd" clip-rule="evenodd" d="M74.8142 203.816C74.547 203.548 75.1786 203.17 75.3244 203.304C75.5916 203.572 74.96 203.95 74.8142 203.816Z" fill="white"/>
<path fill-rule="evenodd" clip-rule="evenodd" d="M113.782 203.816C113.515 203.548 114.146 203.17 114.292 203.304C114.547 203.572 113.928 203.95 113.782 203.816Z" fill="white"/>
<path fill-rule="evenodd" clip-rule="evenodd" d="M22.6784 204.315C22.4112 204.047 23.0429 203.669 23.1886 203.803C23.4437 204.071 22.8242 204.449 22.6784 204.315Z" fill="white"/>
<path fill-rule="evenodd" clip-rule="evenodd" d="M29.7732 205.327C29.5059 205.071 30.1376 204.681 30.2834 204.815C30.5506 205.083 29.9189 205.461 29.7732 205.327Z" fill="white"/>
<path fill-rule="evenodd" clip-rule="evenodd" d="M15.0866 205.839C14.8194 205.571 15.4511 205.193 15.5968 205.327C15.8519 205.595 15.2324 205.973 15.0866 205.839Z" fill="white"/>
<path fill-rule="evenodd" clip-rule="evenodd" d="M23.1892 205.839C22.922 205.571 23.5537 205.193 23.6873 205.327C23.9545 205.595 23.3229 205.973 23.1892 205.839Z" fill="white"/>
<path fill-rule="evenodd" clip-rule="evenodd" d="M30.7805 206.35C30.8777 205.778 31.2907 206.07 31.2786 206.35C31.1814 206.923 30.7684 206.631 30.7805 206.35Z" fill="white"/>
<path fill-rule="evenodd" clip-rule="evenodd" d="M133.521 207.362C133.619 206.789 134.032 207.081 134.032 207.362C133.934 207.935 133.521 207.642 133.521 207.362Z" fill="white"/>
<path fill-rule="evenodd" clip-rule="evenodd" d="M119.856 208.373C119.589 208.105 120.221 207.727 120.366 207.862C120.634 208.13 120.002 208.507 119.856 208.373Z" fill="white"/>
<path fill-rule="evenodd" clip-rule="evenodd" d="M136.061 209.909C136.158 209.336 136.571 209.628 136.571 209.909C136.474 210.481 136.061 210.189 136.061 209.909Z" fill="white"/>
<path fill-rule="evenodd" clip-rule="evenodd" d="M13.0701 210.409C12.8029 210.153 13.4345 209.763 13.5681 209.91C13.8354 210.178 13.2037 210.555 13.0701 210.409Z" fill="white"/>
<path fill-rule="evenodd" clip-rule="evenodd" d="M48.491 210.92C48.2238 210.652 48.8554 210.274 48.989 210.408C49.2563 210.677 48.6246 211.054 48.491 210.92Z" fill="white"/>
<path fill-rule="evenodd" clip-rule="evenodd" d="M136.558 211.433C136.291 211.165 136.923 210.787 137.069 210.921C137.324 211.189 136.704 211.567 136.558 211.433Z" fill="white"/>
<path fill-rule="evenodd" clip-rule="evenodd" d="M143.652 211.433C143.385 211.165 144.016 210.787 144.162 210.921C144.429 211.189 143.798 211.567 143.652 211.433Z" fill="white"/>
<path fill-rule="evenodd" clip-rule="evenodd" d="M132.513 212.444C132.246 212.176 132.878 211.798 133.024 211.932C133.291 212.2 132.659 212.578 132.513 212.444Z" fill="white"/>
<path fill-rule="evenodd" clip-rule="evenodd" d="M51.0301 212.943C50.7628 212.688 51.3945 212.298 51.5281 212.432C51.7953 212.7 51.1637 213.077 51.0301 212.943Z" fill="white"/>
<path fill-rule="evenodd" clip-rule="evenodd" d="M138.587 212.943C138.319 212.688 138.951 212.298 139.097 212.432C139.364 212.7 138.732 213.077 138.587 212.943Z" fill="white"/>
<path fill-rule="evenodd" clip-rule="evenodd" d="M128.468 213.967C128.565 213.394 128.978 213.687 128.978 213.967C128.881 214.54 128.468 214.247 128.468 213.967Z" fill="white"/>
<path fill-rule="evenodd" clip-rule="evenodd" d="M13.5688 214.479C15.3059 215.795 10.9693 215.71 13.5688 214.479Z" fill="white"/>
<path fill-rule="evenodd" clip-rule="evenodd" d="M79.3699 214.978C79.1026 214.71 79.7343 214.333 79.88 214.467C80.1473 214.735 79.5156 215.113 79.3699 214.978Z" fill="white"/>
<path fill-rule="evenodd" clip-rule="evenodd" d="M86.9616 214.978C86.6944 214.71 87.3261 214.333 87.4718 214.467C87.7391 214.735 87.1074 215.113 86.9616 214.978Z" fill="white"/>
<path fill-rule="evenodd" clip-rule="evenodd" d="M16.6052 215.491C16.338 215.235 16.9696 214.845 17.1154 214.991C17.3826 215.259 16.751 215.637 16.6052 215.491Z" fill="white"/>
<path fill-rule="evenodd" clip-rule="evenodd" d="M35.8465 215.491C35.5792 215.235 36.2109 214.845 36.3445 214.991C36.6117 215.259 35.9801 215.637 35.8465 215.491Z" fill="white"/>
<path fill-rule="evenodd" clip-rule="evenodd" d="M122.892 215.491C122.625 215.235 123.257 214.845 123.402 214.991C123.67 215.259 123.038 215.637 122.892 215.491Z" fill="white"/>
<path fill-rule="evenodd" clip-rule="evenodd" d="M126.44 215.491C126.173 215.235 126.805 214.845 126.95 214.991C127.205 215.259 126.586 215.637 126.44 215.491Z" fill="white"/>
<path fill-rule="evenodd" clip-rule="evenodd" d="M140.105 215.491C139.838 215.235 140.47 214.845 140.615 214.991C140.883 215.259 140.251 215.637 140.105 215.491Z" fill="white"/>
<path fill-rule="evenodd" clip-rule="evenodd" d="M58.1123 217.014C58.2095 216.441 58.6225 216.733 58.6225 217.014C58.5253 217.586 58.1123 217.294 58.1123 217.014Z" fill="white"/>
<path fill-rule="evenodd" clip-rule="evenodd" d="M30.2705 218.025C30.3677 217.452 30.7807 217.745 30.7807 218.025C30.6835 218.598 30.2705 218.305 30.2705 218.025Z" fill="white"/>
<path fill-rule="evenodd" clip-rule="evenodd" d="M120.366 218.025C120.099 217.769 120.73 217.379 120.876 217.525C121.143 217.793 120.512 218.171 120.366 218.025Z" fill="white"/>
<path fill-rule="evenodd" clip-rule="evenodd" d="M124.922 218.025C124.654 217.769 125.286 217.379 125.432 217.525C125.699 217.793 125.067 218.171 124.922 218.025Z" fill="white"/>
<path fill-rule="evenodd" clip-rule="evenodd" d="M103.664 218.537C103.397 218.269 104.028 217.891 104.174 218.025C104.429 218.293 103.81 218.671 103.664 218.537Z" fill="white"/>
<path fill-rule="evenodd" clip-rule="evenodd" d="M117.84 218.537C117.572 218.269 118.204 217.891 118.35 218.025C118.617 218.293 117.985 218.671 117.84 218.537Z" fill="white"/>
<path fill-rule="evenodd" clip-rule="evenodd" d="M130.485 218.537C130.218 218.269 130.849 217.891 130.995 218.025C131.263 218.293 130.631 218.671 130.485 218.537Z" fill="white"/>
<path fill-rule="evenodd" clip-rule="evenodd" d="M40.4011 220.061C40.1339 219.793 40.7655 219.415 40.9113 219.549C41.1664 219.817 40.5469 220.195 40.4011 220.061Z" fill="white"/>
<path fill-rule="evenodd" clip-rule="evenodd" d="M57.1042 220.061C56.837 219.793 57.4686 219.415 57.6144 219.549C57.8816 219.817 57.25 220.195 57.1042 220.061Z" fill="white"/>
<path fill-rule="evenodd" clip-rule="evenodd" d="M77.3406 220.061C77.0733 219.793 77.705 219.415 77.8507 219.549C78.118 219.817 77.4863 220.195 77.3406 220.061Z" fill="white"/>
<path fill-rule="evenodd" clip-rule="evenodd" d="M34.3279 220.56C34.0606 220.304 34.6923 219.914 34.838 220.048C35.1053 220.316 34.4736 220.694 34.3279 220.56Z" fill="white"/>
<path fill-rule="evenodd" clip-rule="evenodd" d="M82.9161 -1.82875C84.5317 -2.75492 80.2802 0.38916 82.9161 -1.82875Z" fill="white"/>
<path fill-rule="evenodd" clip-rule="evenodd" d="M37.3651 39.2999C38.9078 40.6892 35.9804 37.7523 37.3651 39.2999Z" fill="white"/>
<path fill-rule="evenodd" clip-rule="evenodd" d="M92.5248 50.4633C94.7356 53.1077 91.6016 48.8425 92.5248 50.4633Z" fill="white"/>
<path fill-rule="evenodd" clip-rule="evenodd" d="M94.5538 60.1144C93.3391 59.0908 95.4284 60.3825 95.5621 61.1259C95.9751 63.4535 94.3109 61.0284 94.5538 60.1144Z" fill="white"/>
<path fill-rule="evenodd" clip-rule="evenodd" d="M28.2543 62.6491C28.3515 62.2104 28.06 62.1739 27.7441 62.1373C27.7441 61.6499 28.3636 61.7474 28.7524 61.6255C28.6552 62.052 28.9467 62.1008 29.2625 62.1373C29.1411 62.6857 28.2543 62.4785 28.2543 63.1488C27.6834 63.0513 27.9749 62.637 28.2543 62.6491Z" fill="white"/>
<path fill-rule="evenodd" clip-rule="evenodd" d="M135.55 92.6157C137.092 94.005 134.165 91.0681 135.55 92.6157Z" fill="white"/>
<path fill-rule="evenodd" clip-rule="evenodd" d="M72.786 106.825C73.4055 106.459 73.8913 106.288 73.2961 106.825C72.7009 107.349 72.0936 107.227 72.786 106.825Z" fill="white"/>
<path fill-rule="evenodd" clip-rule="evenodd" d="M75.3242 110.384C77.8265 109.701 76.1138 107.983 75.3242 110.384Z" fill="white"/>
<path fill-rule="evenodd" clip-rule="evenodd" d="M9.52334 120.534C11.066 119.145 8.13857 122.082 9.52334 120.534Z" fill="white"/>
<path fill-rule="evenodd" clip-rule="evenodd" d="M30.7812 133.233C32.7126 133.903 28.7162 137.023 29.2628 134.756C30.3682 134.853 30.8784 134.342 30.7812 133.233Z" fill="white"/>
<path fill-rule="evenodd" clip-rule="evenodd" d="M12.5605 135.768C12.6577 135.195 13.0707 135.487 13.0707 135.768C14.5527 135.317 14.6256 135.317 16.1075 135.768C15.0386 136.34 14.6377 135.963 13.0707 136.779C13.1558 136.194 12.9614 135.877 12.5605 135.768Z" fill="white"/>
<path fill-rule="evenodd" clip-rule="evenodd" d="M20.662 140.849C21.8524 140.995 20.0789 142.202 20.1518 142.884C19.5566 142.799 19.7266 141.958 19.6416 141.361C20.2247 141.446 20.5405 141.251 20.6498 140.849H20.662Z" fill="white"/>
<path fill-rule="evenodd" clip-rule="evenodd" d="M77.3411 146.942C78.1063 147.381 77.2074 147.697 77.8512 148.977C76.7337 147.649 76.1749 150.549 74.8145 148.977C74.9359 148.343 75.8227 148.465 75.8227 148.977C76.4179 148.892 76.2478 148.051 76.3328 147.454C76.9159 147.539 77.2317 147.344 77.3411 146.942Z" fill="white"/>
<path fill-rule="evenodd" clip-rule="evenodd" d="M87.4718 151.001C89.0024 151.647 86.3421 153.072 85.9534 152.012V153.024C84.1557 151.988 87.1924 151.61 87.4718 150.989V151.001Z" fill="white"/>
<path fill-rule="evenodd" clip-rule="evenodd" d="M109.228 162.175C109.349 160.871 110.102 162.87 111.256 162.175C111.183 163.443 109.543 162.321 109.228 162.175Z" fill="white"/>
<path fill-rule="evenodd" clip-rule="evenodd" d="M66.7125 200.758C66.3724 202.354 66.7732 202.829 66.2144 203.292C66.2995 204.974 64.6475 200.514 66.7125 200.758Z" fill="white"/>
<path fill-rule="evenodd" clip-rule="evenodd" d="M59.6308 206.863C61.1734 208.252 58.246 205.315 59.6308 206.863Z" fill="white"/>
<path fill-rule="evenodd" clip-rule="evenodd" d="M67.7323 214.978C69.275 213.589 66.3476 216.526 67.7323 214.978Z" fill="white"/>
<path fill-rule="evenodd" clip-rule="evenodd" d="M29.2623 221.583C30.392 219.621 29.0437 222.948 28.7522 222.595C28.3392 222.071 29.2016 221.681 29.2623 221.583Z" fill="white"/>
</g>
</svg>
