<svg width="61" height="60" viewBox="0 0 61 60" fill="none" xmlns="http://www.w3.org/2000/svg">
<circle cx="30.5" cy="30" r="30" fill="#FFCC00"/>
<g clip-path="url(#clip0_1741_21537)">
<path d="M11.373 23.561C11.353 23.5133 11.3398 23.4655 11.3298 23.4144C10.8054 20.3721 16.4576 19.5944 18.2764 20.1811C19.209 20.4812 20.1483 21.0065 20.8917 21.6579C21.1805 21.9103 23.0258 24.2841 21.6982 24.3148C21.5024 24.3182 21.3232 24.2056 21.1639 24.0863C19.9491 23.2063 19.3052 21.9 17.7752 21.5249C16.0958 21.1122 14.2571 21.6715 13.0822 22.9778C12.7105 23.3905 11.7779 24.5637 11.3763 23.561H11.373Z" fill="black"/>
<path d="M48.7045 23.5605C48.7244 23.5127 48.7377 23.465 48.7477 23.4138C49.2754 20.3681 43.6199 19.5905 41.8044 20.1771C40.8718 20.4773 39.9325 21.0025 39.1891 21.6539C38.9003 21.9063 37.055 24.2801 38.3826 24.3108C38.5784 24.3142 38.7576 24.2017 38.9169 24.0823C40.1317 23.2024 40.7755 21.8961 42.3056 21.5209C43.985 21.1082 45.8237 21.6676 46.9986 22.9739C47.3703 23.3866 48.3029 24.5598 48.7045 23.5571V23.5605Z" fill="black"/>
<path d="M19.3482 35.1984C26.1487 37.6029 34.0545 37.4563 40.8417 35.0484C43.3044 34.1752 45.6575 32.9474 47.7219 31.3103C48.3658 30.7987 49.5473 29.7278 50.3007 30.7237C50.7322 31.2967 50.3704 32.2482 50.0717 32.7939C49.3515 34.1241 48.0737 35.062 46.9088 35.9488C45.3787 37.1118 43.6761 38.0361 41.9204 38.783C38.93 40.0484 35.7173 40.7066 32.4979 40.9283C31.2865 41.0136 30.0684 41.034 28.8537 40.9965C28.8172 40.9965 28.784 40.9965 28.7475 40.9965C27.0183 40.9385 25.2924 40.7544 23.5898 40.4474C20.3439 39.8642 17.1776 38.7182 14.3067 37.0538C13.9947 36.8731 13.6828 36.6855 13.3741 36.4911C12.3452 35.8464 11.3529 35.195 10.7621 34.0661C10.5463 33.6568 10.4269 33.1691 10.553 32.7223C10.7687 31.9651 11.5653 31.6855 12.2589 31.8389C13.3509 32.0777 14.2337 32.7257 15.1896 33.2748C16.1985 33.8546 17.2473 34.3662 18.3227 34.8062C18.6645 34.946 19.003 35.0756 19.3482 35.195V35.1984Z" fill="black"/>
</g>
<defs>
<clipPath id="clip0_1741_21537">
<rect width="40" height="23" fill="white" transform="translate(10.5001 19)"/>
</clipPath>
</defs>
</svg>
