<svg width="16" height="17" viewBox="0 0 16 17" fill="none" xmlns="http://www.w3.org/2000/svg">
    <g id="fi-rr-refresh" clip-path="url(#clip0_1597_6923)">
        <path id="Vector" d="M7.99999 1.83352C8.88433 1.83642 9.75931 2.01468 10.5743 2.35798C11.3893 2.70127 12.1281 3.2028 12.748 3.83352H10.6667C10.4898 3.83352 10.3203 3.90376 10.1953 4.02878C10.0702 4.1538 9.99999 4.32337 9.99999 4.50018C9.99999 4.677 10.0702 4.84656 10.1953 4.97159C10.3203 5.09661 10.4898 5.16685 10.6667 5.16685H13.4287C13.7569 5.16667 14.0717 5.03619 14.3039 4.80405C14.536 4.57192 14.6665 4.25714 14.6667 3.92885V1.16685C14.6667 0.99004 14.5964 0.82047 14.4714 0.695446C14.3464 0.570422 14.1768 0.500184 14 0.500184C13.8232 0.500184 13.6536 0.570422 13.5286 0.695446C13.4036 0.82047 13.3333 0.99004 13.3333 1.16685V2.55218C12.2314 1.55982 10.8751 0.89379 9.41606 0.628683C7.95707 0.363576 6.45308 0.509859 5.07252 1.05115C3.69196 1.59244 2.48934 2.50736 1.59933 3.69347C0.709331 4.87957 0.167087 6.29001 0.0333259 7.76685C0.0247148 7.85969 0.0355364 7.9533 0.0651012 8.04173C0.094666 8.13015 0.142326 8.21145 0.205044 8.28044C0.267761 8.34943 0.344162 8.4046 0.429378 8.44243C0.514594 8.48027 0.606756 8.49994 0.699993 8.50018C0.863051 8.50226 1.02102 8.44341 1.14296 8.33515C1.26491 8.22689 1.34207 8.07701 1.35933 7.91485C1.50774 6.25535 2.27131 4.71132 3.50005 3.58608C4.72878 2.46083 6.33387 1.83571 7.99999 1.83352Z" fill="#454C53"/>
        <path id="Vector_2" d="M15.3007 8.50005C15.1376 8.49798 14.9797 8.55683 14.8577 8.66509C14.7358 8.77335 14.6586 8.92323 14.6413 9.08539C14.5311 10.3542 14.0593 11.5648 13.2818 12.5735C12.5043 13.5822 11.4537 14.3468 10.2548 14.7764C9.05583 15.2061 7.75881 15.2828 6.51758 14.9975C5.27635 14.7121 4.14301 14.0768 3.25201 13.1667H5.33334C5.51015 13.1667 5.67972 13.0965 5.80475 12.9715C5.92977 12.8464 6.00001 12.6769 6.00001 12.5001C6.00001 12.3232 5.92977 12.1537 5.80475 12.0286C5.67972 11.9036 5.51015 11.8334 5.33334 11.8334H2.57134C2.40874 11.8333 2.24772 11.8653 2.09748 11.9274C1.94724 11.9896 1.81073 12.0808 1.69575 12.1958C1.58077 12.3108 1.48959 12.4473 1.4274 12.5975C1.36522 12.7478 1.33326 12.9088 1.33334 13.0714V15.8334C1.33334 16.0102 1.40358 16.1798 1.52861 16.3048C1.65363 16.4298 1.8232 16.5001 2.00001 16.5001C2.17682 16.5001 2.34639 16.4298 2.47141 16.3048C2.59644 16.1798 2.66668 16.0102 2.66668 15.8334V14.4481C3.76856 15.4404 5.12495 16.1064 6.58394 16.3716C8.04294 16.6367 9.54693 16.4904 10.9275 15.9491C12.308 15.4078 13.5107 14.4929 14.4007 13.3068C15.2907 12.1207 15.8329 10.7102 15.9667 9.23339C15.9753 9.14055 15.9645 9.04693 15.9349 8.95851C15.9053 8.87008 15.8577 8.78879 15.795 8.7198C15.7322 8.65081 15.6558 8.59564 15.5706 8.5578C15.4854 8.51997 15.3939 8.5003 15.3007 8.50005Z" fill="#454C53"/>
    </g>
    <defs>
        <clipPath id="clip0_1597_6923">
            <rect width="16" height="16" fill="white" transform="translate(0 0.5)"/>
        </clipPath>
    </defs>
</svg>
