<svg width="34" height="36" viewBox="0 0 34 36" fill="none" xmlns="http://www.w3.org/2000/svg">
<path d="M31 30.335L3 2.33496Z" fill="white"/>
<path d="M31 30.335L3 2.33496" stroke="white" stroke-width="3" stroke-miterlimit="10" stroke-linecap="square"/>
<path d="M27.0638 13.0186C27.7723 13.0542 28.3177 13.6625 28.3177 14.3721V17.001L28.307 17.5117C28.264 18.532 28.0907 19.5426 27.7904 20.5186L27.6292 21.0029C27.6205 21.0266 27.6062 21.0479 27.5872 21.0645C27.5681 21.0811 27.5446 21.0932 27.5199 21.0986C27.4953 21.1039 27.4698 21.1027 27.4456 21.0957C27.4334 21.0921 27.4213 21.0875 27.4105 21.0811L27.3812 21.0576L25.5628 19.2402C25.5256 19.2023 25.4986 19.1556 25.4837 19.1045C25.4763 19.079 25.472 19.0526 25.471 19.0264L25.4779 18.9473C25.6141 18.3077 25.6823 17.6549 25.682 17.001V14.334L25.6888 14.2012C25.7023 14.0686 25.7357 13.9384 25.7884 13.8154C25.8587 13.6515 25.962 13.5039 26.0911 13.3809C26.2203 13.2578 26.3732 13.1619 26.5404 13.0996C26.6656 13.053 26.797 13.0256 26.93 13.0186H27.0638ZM16.4281 1.0166C20.0741 1.06648 22.9845 4.09251 22.9847 7.74316V16.2998L22.9779 16.3438C22.9736 16.3577 22.9675 16.3715 22.9593 16.3838C22.9428 16.4085 22.9184 16.428 22.8909 16.4395C22.8635 16.4507 22.8331 16.454 22.804 16.4482C22.7748 16.4425 22.748 16.4273 22.7269 16.4062H22.7259L20.4417 14.1182C20.3825 14.0588 20.3491 13.9784 20.349 13.8945V7.66797L20.347 7.46973C20.3319 7.00719 20.2356 6.55017 20.0618 6.12012C19.8633 5.62884 19.5683 5.1823 19.1937 4.80762C18.8189 4.43288 18.3725 4.137 17.8812 3.93848C17.4512 3.76477 16.9941 3.66848 16.5316 3.65332L16.3333 3.65234C15.5536 3.64396 14.7887 3.86536 14.1341 4.28906C13.5611 4.65993 13.095 5.17136 12.7786 5.77246L12.6527 6.03516C12.643 6.05766 12.6277 6.07734 12.6087 6.09277C12.5895 6.10824 12.5665 6.11932 12.5423 6.12402C12.5181 6.12872 12.4927 6.12731 12.4691 6.12012C12.4574 6.11655 12.4462 6.11166 12.4359 6.10547L12.4066 6.08301L10.7786 4.4541C10.7272 4.4029 10.6947 4.33578 10.6868 4.26367C10.681 4.20934 10.6891 4.15422 10.7103 4.10449L10.7357 4.05664C11.3465 3.10663 12.1906 2.32896 13.1868 1.79688C14.0585 1.33134 15.0215 1.06726 16.0052 1.02246L16.4281 1.0166ZM15.0159 28.9131L15.0013 28.9111C9.01766 28.246 4.34895 23.1594 4.34895 17.001V14.334L4.35579 14.2012C4.36928 14.0686 4.40271 13.9384 4.4554 13.8154C4.52558 13.6517 4.62823 13.5038 4.75716 13.3809C4.88623 13.2579 5.03932 13.1619 5.20638 13.0996C5.33186 13.0529 5.4638 13.0256 5.597 13.0186H5.72981C6.43848 13.0539 6.9847 13.6624 6.9847 14.3721V17.001L6.99739 17.4639C7.11874 19.7722 8.0896 21.9613 9.73177 23.6035C11.3739 25.2454 13.5624 26.2155 15.8704 26.3369L16.3333 26.3496C17.5057 26.3513 18.6661 26.1308 19.7533 25.7002L20.2142 25.5029C20.273 25.4754 20.3387 25.4665 20.4027 25.4775C20.4347 25.4831 20.4659 25.4931 20.4945 25.5078L20.5726 25.5645L22.0648 27.0576C22.0998 27.0925 22.1262 27.1348 22.1419 27.1816C22.1576 27.2284 22.1625 27.2783 22.1556 27.3271C22.1486 27.3761 22.1301 27.4233 22.1019 27.4639C22.0877 27.4842 22.0714 27.5031 22.0531 27.5195L21.9925 27.5615C20.6498 28.2843 19.1809 28.7424 17.6654 28.9111L17.6507 28.9131V33.0166H21.6663C21.8447 33.0166 22.0219 33.0528 22.1859 33.123C22.3497 33.1933 22.4974 33.2967 22.6204 33.4258C22.7433 33.5548 22.8394 33.7071 22.9017 33.874C22.9484 33.9995 22.9757 34.1315 22.9827 34.2646V34.3975C22.9474 35.1061 22.3389 35.6523 21.6292 35.6523H11.0003L10.8665 35.6455C10.734 35.632 10.6037 35.5986 10.4808 35.5459C10.3169 35.4757 10.1692 35.3722 10.0462 35.2432C9.92323 35.1141 9.82721 34.961 9.76497 34.7939C9.71837 34.6687 9.69097 34.5373 9.68391 34.4043V34.2715C9.71931 33.5628 10.3278 33.0166 11.0374 33.0166H15.0159V28.9131Z" fill="white" stroke="white" stroke-width="0.03125"/>
<path d="M9.86197 14.8857C9.87654 14.8886 9.89098 14.8935 9.90396 14.9004L9.94009 14.9268L12.2614 17.252C12.2991 17.2897 12.3266 17.336 12.3415 17.3867L12.3522 17.4385C12.5864 19.2202 13.9928 20.6823 15.7272 20.9639L15.8961 20.9883C15.9684 20.9962 16.0366 21.0273 16.0885 21.0781V21.0791L18.1647 23.1553C18.1835 23.1738 18.1977 23.1972 18.2047 23.2227C18.2117 23.248 18.2113 23.2753 18.2047 23.3008C18.1981 23.3262 18.185 23.3494 18.1667 23.3682C18.1575 23.3775 18.1475 23.3859 18.1364 23.3926L18.1003 23.4082C16.9636 23.7265 15.7616 23.7311 14.6227 23.4209C13.6262 23.1495 12.7104 22.6457 11.9489 21.9541L11.6325 21.6465H11.6315C10.384 20.3881 9.68367 18.688 9.68228 16.916V15.0342L9.68912 14.9902C9.69338 14.9761 9.69942 14.9626 9.70767 14.9502C9.72418 14.9254 9.7476 14.906 9.77505 14.8945C9.80247 14.8831 9.83281 14.8801 9.86197 14.8857Z" fill="white" stroke="white" stroke-width="0.03125"/>
</svg>
