<svg width="25" height="34" viewBox="0 0 25 34" fill="none" xmlns="http://www.w3.org/2000/svg">
<path fill-rule="evenodd" clip-rule="evenodd" d="M5.47049 6C5.47049 4.4087 6.16212 2.88258 7.39322 1.75736C8.62432 0.632141 10.294 0 12.0351 0C13.7761 0 15.4459 0.632141 16.677 1.75736C17.9081 2.88258 18.5997 4.4087 18.5997 6V18C18.5997 19.5913 17.9081 21.1174 16.677 22.2426C15.4459 23.3679 13.7761 24 12.0351 24C10.294 24 8.62432 23.3679 7.39322 22.2426C6.16212 21.1174 5.47049 19.5913 5.47049 18V6ZM12.0351 2C10.8744 2 9.76124 2.42143 8.94051 3.17157C8.11978 3.92172 7.65869 4.93913 7.65869 6V18C7.65869 19.0609 8.11978 20.0783 8.94051 20.8284C9.76124 21.5786 10.8744 22 12.0351 22C13.1958 22 14.3089 21.5786 15.1297 20.8284C15.9504 20.0783 16.4115 19.0609 16.4115 18V6C16.4115 4.93913 15.9504 3.92172 15.1297 3.17157C14.3089 2.42143 13.1958 2 12.0351 2ZM1.0941 17C1.38427 17 1.66256 17.1054 1.86774 17.2929C2.07293 17.4804 2.1882 17.7348 2.1882 18C2.1882 20.3869 3.22564 22.6761 5.07229 24.364C6.91894 26.0518 9.42353 27 12.0351 27C14.6466 27 17.1512 26.0518 18.9979 24.364C20.8445 22.6761 21.882 20.3869 21.882 18C21.882 17.7348 21.9972 17.4804 22.2024 17.2929C22.4076 17.1054 22.6859 17 22.9761 17C23.2662 17 23.5445 17.1054 23.7497 17.2929C23.9549 17.4804 24.0702 17.7348 24.0702 18C24.0706 20.7445 22.9485 23.3901 20.9242 25.4172C18.8998 27.4443 16.1195 28.7065 13.1292 28.956V32H18.5997C18.8899 32 19.1681 32.1054 19.3733 32.2929C19.5785 32.4804 19.6938 32.7348 19.6938 33C19.6938 33.2652 19.5785 33.5196 19.3733 33.7071C19.1681 33.8946 18.8899 34 18.5997 34H5.47049C5.18032 34 4.90203 33.8946 4.69685 33.7071C4.49167 33.5196 4.3764 33.2652 4.3764 33C4.3764 32.7348 4.49167 32.4804 4.69685 32.2929C4.90203 32.1054 5.18032 32 5.47049 32H10.941V28.956C7.95063 28.7065 5.17034 27.4443 3.14601 25.4172C1.12169 23.3901 -0.000422684 20.7445 1.19438e-07 18C1.19438e-07 17.7348 0.115271 17.4804 0.320454 17.2929C0.525638 17.1054 0.803926 17 1.0941 17Z" fill="white"/>
</svg>
