<svg width="14" height="14" viewBox="0 0 14 14" fill="none" xmlns="http://www.w3.org/2000/svg">
    <g id="Vector">
        <path id="Vector_2" d="M9.78563 14H7.5625C7.41332 14 7.27024 13.9407 7.16475 13.8353C7.05926 13.7298 7 13.5867 7 13.4375V12.5716C7.00042 12.4386 6.97373 12.3069 6.92156 12.1846C6.86939 12.0622 6.79283 11.9518 6.69656 11.86C6.45344 11.6229 6.10031 11.4913 5.73125 11.5004C5.06375 11.516 4.5 12.1035 4.5 12.7835V13.4375C4.5 13.5867 4.44074 13.7298 4.33525 13.8353C4.22976 13.9407 4.08668 14 3.9375 14H1.73813C1.50987 14 1.28385 13.955 1.07297 13.8677C0.862094 13.7803 0.670485 13.6523 0.509085 13.4909C0.183123 13.165 0 12.7229 0 12.2619V10.0626C0 9.91341 0.0592633 9.77034 0.164752 9.66485C0.270242 9.55936 0.413316 9.5001 0.5625 9.5001H1.42844C1.71469 9.5001 1.99313 9.3776 2.2125 9.15636C2.33455 9.03334 2.43106 8.8874 2.49649 8.72694C2.56192 8.56648 2.59498 8.39466 2.59375 8.22138C2.58437 7.55921 2.03938 7.00016 1.40344 7.00016H0.5625C0.413316 7.00016 0.270242 6.9409 0.164752 6.83541C0.0592633 6.72992 0 6.58685 0 6.43767V4.23834C0 4.0101 0.044958 3.78408 0.132307 3.57321C0.219656 3.36233 0.347685 3.17073 0.509085 3.00933C0.835047 2.68338 1.27715 2.50026 1.73813 2.50026H3.46438C3.53068 2.50026 3.59427 2.47392 3.64115 2.42704C3.68804 2.38015 3.71438 2.31657 3.71438 2.25026V2.04777C3.71437 1.77583 3.76854 1.50661 3.87371 1.25583C3.97888 1.00505 4.13295 0.777724 4.32693 0.587128C4.5209 0.396531 4.7509 0.246478 5.00349 0.145727C5.25609 0.0449751 5.52622 -0.00445697 5.79812 0.000315378C6.90719 0.0196899 7.80937 0.949669 7.80937 2.07308V2.25026C7.80937 2.31657 7.83571 2.38015 7.8826 2.42704C7.92948 2.47392 7.99307 2.50026 8.05937 2.50026H9.78563C10.0108 2.50026 10.2337 2.5446 10.4417 2.63076C10.6497 2.71691 10.8387 2.84319 10.9979 3.00238C11.1571 3.16157 11.2833 3.35055 11.3695 3.55855C11.4557 3.76654 11.5 3.98947 11.5 4.2146V5.94081C11.5 6.00711 11.5263 6.0707 11.5732 6.11758C11.6201 6.16446 11.6837 6.1908 11.75 6.1908H11.9269C13.07 6.1908 14 7.09703 14 8.21076C14 9.35479 13.0816 10.2857 11.9525 10.2857H11.75C11.6837 10.2857 11.6201 10.312 11.5732 10.3589C11.5263 10.4058 11.5 10.4694 11.5 10.5357V12.2857C11.5 12.5108 11.4557 12.7337 11.3695 12.9417C11.2833 13.1497 11.1571 13.3387 10.9979 13.4979C10.8387 13.6571 10.6497 13.7834 10.4417 13.8695C10.2337 13.9557 10.0108 14 9.78563 14Z" fill="#5865F2"/>
    </g>
</svg>
