<svg width="27" height="26" viewBox="0 0 27 26" fill="none" xmlns="http://www.w3.org/2000/svg">
<path d="M9.50502 1.55493C8.74234 0.474897 7.68632 -0.0117839 6.56629 0.000216419C5.5036 0.0108834 4.46891 0.465563 3.60489 1.07091C2.72362 1.69136 1.97217 2.47814 1.39285 3.38698C0.846167 4.25234 0.451492 5.27503 0.504826 6.27373C0.762165 11.0779 3.46489 16.2113 7.26098 20.0101C11.0544 23.8049 16.1198 26.4423 21.2346 25.9383C22.2373 25.8396 23.1853 25.3289 23.96 24.6783C24.7613 23.9996 25.4159 23.1648 25.8841 22.2248C26.3374 21.3022 26.6081 20.2381 26.4587 19.2021C26.3041 18.1221 25.7 17.1567 24.5894 16.5167C24.3592 16.3832 24.1316 16.2454 23.9067 16.1033C23.7067 15.9793 23.4933 15.8447 23.2347 15.69C22.7063 15.3642 22.1488 15.0884 21.5693 14.866C20.9733 14.6486 20.2919 14.506 19.5826 14.6033C18.8479 14.7046 18.1652 15.0513 17.5745 15.6727C17.1199 16.1527 16.4505 16.302 15.5092 16.03C14.5518 15.7527 13.4744 15.0646 12.5384 14.134C11.6024 13.2059 10.8944 12.1206 10.5917 11.1405C10.293 10.1698 10.425 9.45648 10.8917 8.96447C11.5224 8.30045 11.8584 7.56176 11.9291 6.78041C11.9984 6.02039 11.8091 5.3057 11.5384 4.68168C11.1331 3.74966 10.445 2.82296 9.90637 2.10028C9.77093 1.91959 9.63759 1.73735 9.50636 1.55359" fill="white"/>
</svg>
