<svg width="34" height="33" viewBox="0 0 34 33" fill="none" xmlns="http://www.w3.org/2000/svg">
<path d="M34 12.2621L32.3469 10.5998L28.1379 14.8322L23.929 10.5998L22.2759 12.2621L26.4848 16.4946L22.2759 20.727L23.929 22.3894L28.1379 18.1569L32.3469 22.3894L34 20.727L29.791 16.4946L34 12.2621ZM18.7586 33C18.6035 32.9994 18.4501 32.9678 18.3072 32.907C18.1643 32.8463 18.0348 32.7577 17.9262 32.6463L8.99241 23.5683H1.17241C0.86147 23.5683 0.563262 23.4441 0.343392 23.223C0.123522 23.0019 0 22.702 0 22.3894V10.5998C0 10.2871 0.123522 9.98722 0.343392 9.76613C0.563262 9.54503 0.86147 9.42082 1.17241 9.42082H8.99241L17.9262 0.342833C18.1459 0.12325 18.443 0 18.7528 0C19.0625 0 19.3596 0.12325 19.5793 0.342833C19.8002 0.560504 19.9266 0.857131 19.931 1.1681V31.821C19.931 32.1337 19.8075 32.4336 19.5876 32.6547C19.3678 32.8758 19.0696 33 18.7586 33ZM2.34483 21.2104H9.37931C9.72108 21.2082 10.0514 21.3343 10.3055 21.5641L17.5862 28.9562V4.03297L10.3055 11.425C10.0514 11.6549 9.72108 11.781 9.37931 11.7787H2.34483V21.2104Z" fill="white"/>
</svg>
