<svg width="37" height="32" viewBox="0 0 37 32" fill="none" xmlns="http://www.w3.org/2000/svg">
<path d="M20.1356 0.106945C20.408 0.208609 20.6406 0.379176 20.8043 0.597338C20.968 0.815499 21.0556 1.07159 21.0561 1.33361V30.6669C21.056 30.9294 20.9686 31.1861 20.8046 31.4048C20.6407 31.6234 20.4075 31.7943 20.1345 31.896C19.8614 31.9976 19.5606 32.0256 19.2697 31.9763C18.9788 31.927 18.7108 31.8026 18.4993 31.6189L9.69482 23.9522H4.51202C3.31536 23.9522 2.16771 23.5308 1.32154 22.7806C0.475372 22.0305 0 21.0131 0 19.9522V11.9789C0 10.918 0.475372 9.90064 1.32154 9.15049C2.16771 8.40035 3.31536 7.97892 4.51202 7.97892H9.69783L18.5023 0.378944C18.7139 0.195894 18.9817 0.0722114 19.2723 0.0233594C19.5628 -0.0254925 19.8631 0.00531999 20.1356 0.106945ZM18.0481 4.49093L11.3613 10.2696C11.0797 10.513 10.7017 10.6489 10.3085 10.6482H4.51202C4.11313 10.6482 3.73058 10.7887 3.44852 11.0388C3.16647 11.2888 3.00801 11.628 3.00801 11.9816V19.9522C3.00801 20.3058 3.16647 20.645 3.44852 20.895C3.73058 21.1451 4.11313 21.2856 4.51202 21.2856H10.3115C10.7052 21.2856 11.0832 21.4225 11.3643 21.6669L18.0481 27.4882V4.49093ZM24.398 8.50159C24.521 8.3644 24.6732 8.25005 24.8461 8.16506C25.019 8.08008 25.209 8.02615 25.4054 8.00633C25.6018 7.98652 25.8007 8.00122 25.9907 8.0496C26.1806 8.09797 26.358 8.17907 26.5126 8.28826L26.5186 8.29092L26.5246 8.29626L26.5397 8.30692L26.5848 8.34159L26.7232 8.44826C26.8335 8.53714 26.9758 8.66337 27.1503 8.82692C27.4902 9.15492 27.9324 9.63225 28.3686 10.2669C29.2439 11.5469 30.0921 13.4482 30.0921 15.9949C30.0921 18.5389 29.2439 20.4429 28.3686 21.7229C28.0175 22.2384 27.6094 22.7217 27.1503 23.1656C26.9571 23.3481 26.7543 23.5225 26.5427 23.6882L26.5186 23.7069H26.5156C26.5156 23.7069 25.171 24.3549 24.401 23.4989C24.1534 23.2242 24.0381 22.874 24.0804 22.5244C24.1226 22.1748 24.319 21.8541 24.6266 21.6322L24.6326 21.6269L24.6867 21.5842C24.7429 21.5398 24.8281 21.4642 24.9424 21.3576C25.2646 21.0439 25.5507 20.7027 25.7967 20.3389C26.4284 19.4189 27.0841 17.9869 27.0841 15.9922C27.0841 13.9976 26.4284 12.5709 25.7967 11.6536C25.487 11.2013 25.1151 10.7848 24.6898 10.4136L24.6356 10.3709C24.3253 10.1505 24.1261 9.83005 24.0815 9.47974C24.037 9.12942 24.1508 8.77773 24.398 8.50159ZM29.5176 2.95494C29.3636 2.84197 29.1858 2.75734 28.9945 2.706C28.8032 2.65466 28.6023 2.63763 28.4035 2.65591C28.2047 2.6742 28.012 2.72742 27.8367 2.81248C27.6614 2.89755 27.5069 3.01273 27.3824 3.15132C27.2578 3.2899 27.1657 3.4491 27.1114 3.61961C27.057 3.79012 27.0416 3.96852 27.0659 4.14439C27.0902 4.32026 27.1538 4.49007 27.253 4.64389C27.3522 4.79771 27.485 4.93246 27.6436 5.04027L27.6767 5.06693L27.8331 5.18693C27.9775 5.29893 28.179 5.47226 28.4377 5.70693C28.9491 6.17893 29.6409 6.88826 30.3328 7.82426C31.7165 9.69359 33.1002 12.4456 33.1002 16.0082C33.1119 18.9156 32.1487 21.7605 30.3328 24.1815C29.6409 25.1149 28.9491 25.8189 28.4377 26.2882C28.1957 26.5112 27.9427 26.7247 27.6797 26.9282L27.6466 26.9549H27.6436C27.3401 27.1776 27.1472 27.497 27.1066 27.8445C27.0659 28.1919 27.1807 28.5397 27.4262 28.8129C27.6717 29.0861 28.0284 29.263 28.4195 29.3055C28.8106 29.348 29.2049 29.2527 29.5176 29.0402L29.6169 28.9682L29.8425 28.7949C30.032 28.6429 30.2937 28.4269 30.6035 28.1415C31.4378 27.3735 32.1891 26.5379 32.8475 25.6455C34.9843 22.7893 36.1179 19.4355 36.1052 16.0082C36.1131 12.5782 34.98 9.22228 32.8475 6.36026C32.1889 5.46711 31.4388 4.62978 30.6065 3.85893C30.2919 3.56945 29.9627 3.29272 29.6199 3.0296L29.5507 2.97894L29.5296 2.96294L29.5236 2.9576L29.5176 2.95494Z" fill="white"/>
</svg>
