<svg width="12" height="12" viewBox="0 0 12 12" fill="none" xmlns="http://www.w3.org/2000/svg">
<path d="M6.15514 12C4.9973 12 3.98976 11.7842 3.13251 11.3527C2.27526 10.9211 1.61006 10.2711 1.13691 9.40256C0.669319 8.53405 0.435524 7.44976 0.435524 6.1497C0.435524 4.08361 0.955995 2.54349 1.99694 1.52933C3.03788 0.509777 4.48796 0 6.34719 0C8.08951 0 9.46723 0.498989 10.4803 1.49697C11.4935 2.48955 12 3.96224 12 5.91504C12 7.29602 11.7634 8.43695 11.2903 9.33783C10.8171 10.2333 10.1436 10.9022 9.26962 11.3446C8.39567 11.7815 7.35751 12 6.15514 12ZM6.20524 9.81524C7.20722 9.81524 7.95035 9.4673 8.43464 8.77141C8.91893 8.07552 9.16107 7.17195 9.16107 6.06069C9.16107 4.77141 8.93284 3.8031 8.47639 3.15577C8.01993 2.50843 7.28515 2.18476 6.27204 2.18476C4.27365 2.18476 3.27446 3.46055 3.27446 6.01214C3.27446 7.15037 3.51382 8.07013 3.99254 8.77141C4.47683 9.4673 5.2144 9.81524 6.20524 9.81524Z" fill="#FF7410"/>
</svg>
