<svg width="11" height="12" viewBox="0 0 11 12" fill="none" xmlns="http://www.w3.org/2000/svg">
<path d="M10.8682 11.0047C10.7346 11.0964 10.4952 11.2232 10.1501 11.385C9.81053 11.5415 9.34016 11.6817 8.73897 11.8058C8.13778 11.9299 7.38352 11.9919 6.47617 11.9919C5.2571 11.9919 4.20503 11.7977 3.31995 11.4093C2.44043 11.0155 1.7641 10.3817 1.29094 9.50776C0.817789 8.62846 0.581211 7.46595 0.581211 6.02023C0.581211 4.0944 1.09055 2.61092 2.10923 1.56979C3.1279 0.523264 4.54737 0 6.36763 0C7.23601 0 7.92904 0.0809171 8.44673 0.242751C8.96442 0.404585 9.35686 0.593392 9.62405 0.809171C9.89124 1.02495 10.0777 1.21376 10.1835 1.37559C10.2225 1.43493 10.2503 1.48887 10.267 1.53742C10.2837 1.58058 10.2948 1.65071 10.3004 1.74781C10.3171 1.87728 10.3199 2.06608 10.3087 2.31423C10.3032 2.56237 10.2837 2.78085 10.2503 2.96966C10.228 3.08833 10.1918 3.16655 10.1417 3.20432C10.1195 3.22589 10.0805 3.24477 10.0248 3.26096C9.96918 3.27714 9.88568 3.28523 9.77435 3.28523C9.59622 3.28523 9.38747 3.27984 9.14811 3.26905C8.91432 3.25287 8.74175 3.23668 8.63042 3.2205C8.49683 3.19892 8.39941 3.16925 8.33818 3.13149C8.28251 3.08833 8.22128 3.0236 8.15448 2.93729C8.08769 2.85098 7.99584 2.75118 7.87894 2.6379C7.76204 2.51922 7.58391 2.41403 7.34455 2.32232C7.11076 2.23061 6.78512 2.18476 6.36763 2.18476C5.44915 2.18476 4.72828 2.50843 4.20503 3.15577C3.68177 3.79771 3.42015 4.72286 3.42015 5.93122C3.42015 7.19892 3.69012 8.16183 4.23008 8.81996C4.7756 9.47809 5.55769 9.80715 6.57637 9.80715C7.08849 9.80715 7.46423 9.77208 7.7036 9.70196C7.94852 9.62643 8.10439 9.56979 8.17118 9.53203V7.01551C8.17118 6.85907 8.19902 6.74039 8.25468 6.65947C8.50518 6.30344 8.85587 5.92852 9.30676 5.53473C9.39026 5.46999 9.46262 5.43763 9.52385 5.43763C9.59065 5.43763 9.66023 5.46999 9.7326 5.53473C9.97752 5.73972 10.1835 5.93662 10.3505 6.12542C10.5175 6.30883 10.6622 6.48685 10.7847 6.65947C10.8403 6.74579 10.8682 6.86446 10.8682 7.01551V11.0047Z" fill="#FF7410"/>
</svg>
