<svg width="8" height="12" viewBox="0 0 8 12" fill="none" xmlns="http://www.w3.org/2000/svg">
<path d="M2.0624 11.7978C1.48905 11.7978 1.05208 11.7277 0.751483 11.5875C0.456456 11.4472 0.256061 11.2179 0.150297 10.8997C0.0500988 10.5814 0 10.1579 0 9.62926V2.36291C0 1.82347 0.0500988 1.3973 0.150297 1.08442C0.256061 0.76615 0.456456 0.539582 0.751483 0.40472C1.05208 0.264464 1.48905 0.194336 2.0624 0.194336H5.98681C6.12041 0.194336 6.22061 0.215914 6.28741 0.25907C6.43214 0.35617 6.58243 0.472151 6.73829 0.607013C6.89416 0.741875 7.05837 0.903709 7.23093 1.09252C7.2866 1.16264 7.31443 1.21929 7.31443 1.26244C7.31443 1.31099 7.2866 1.36494 7.23093 1.42428C7.05837 1.61308 6.89416 1.77492 6.73829 1.90978C6.58243 2.04464 6.43214 2.16062 6.28741 2.25772C6.20947 2.30088 6.10928 2.32245 5.98681 2.32245H3.64887C3.28147 2.32245 3.03098 2.39798 2.89738 2.54902C2.76379 2.70007 2.69699 2.959 2.69699 3.32583V4.89562H5.69457C5.82817 4.89562 5.92836 4.91719 5.99516 4.96035C6.13989 5.05745 6.29019 5.17343 6.44605 5.30829C6.60191 5.44316 6.76613 5.60499 6.93869 5.7938C6.99436 5.86392 7.02219 5.92057 7.02219 5.96372C7.02219 6.01227 6.99436 6.06622 6.93869 6.12556C6.76613 6.31436 6.60191 6.4762 6.44605 6.61106C6.29019 6.74592 6.13989 6.8619 5.99516 6.959C5.91723 7.00216 5.81703 7.02374 5.69457 7.02374H2.69699V8.65826C2.69699 9.01969 2.76379 9.27862 2.89738 9.43506C3.03098 9.5915 3.28147 9.66972 3.64887 9.66972H6.26236C6.39595 9.66972 6.49615 9.6913 6.56295 9.73446C6.70768 9.83156 6.85798 9.94754 7.01384 10.0824C7.1697 10.2173 7.33391 10.3791 7.50648 10.5679C7.56214 10.638 7.58997 10.6947 7.58997 10.7378C7.58997 10.7864 7.56214 10.8403 7.50648 10.8997C7.33391 11.0885 7.1697 11.2503 7.01384 11.3852C6.85798 11.52 6.70768 11.636 6.56295 11.7331C6.48502 11.7763 6.38482 11.7978 6.26236 11.7978H2.0624Z" fill="#FF7410"/>
</svg>
