<svg width="40" height="40" viewBox="0 0 40 40" fill="none" xmlns="http://www.w3.org/2000/svg">
    <path d="M13.9833 30.8162V13.8829C13.9833 13.2162 14.1833 12.5662 14.55 12.0162L19.1 5.24955C19.8167 4.16622 21.6 3.39955 23.1167 3.96622C24.75 4.51622 25.8333 6.34955 25.4833 7.98288L24.6167 13.4329C24.55 13.9329 24.6833 14.3829 24.9667 14.7329C25.25 15.0496 25.6667 15.2496 26.1167 15.2496H32.9667C34.2833 15.2496 35.4167 15.7829 36.0833 16.7162C36.7167 17.6162 36.8333 18.7829 36.4167 19.9662L32.3167 32.4495C31.8 34.5162 29.55 36.1995 27.3167 36.1995H20.8167C19.7 36.1995 18.1333 35.8162 17.4167 35.0996L15.2833 33.4496C14.4667 32.8329 13.9833 31.8496 13.9833 30.8162Z" fill="#FFCC00"/>
    <path d="M8.68331 10.6338H6.96665C4.38331 10.6338 3.33331 11.6338 3.33331 14.1005V30.8671C3.33331 33.3338 4.38331 34.3338 6.96665 34.3338H8.68331C11.2666 34.3338 12.3166 33.3338 12.3166 30.8671V14.1005C12.3166 11.6338 11.2666 10.6338 8.68331 10.6338Z" fill="#FFCC00"/>
</svg>
