<svg width="16" height="18" viewBox="0 0 16 18" fill="none" xmlns="http://www.w3.org/2000/svg">
    <path d="M16 3.63653C16 4.03873 15.6742 4.36383 15.2727 4.36383H14.629L13.701 14.1621C13.5228 16.0393 11.9664 17.4553 10.0805 17.4553H5.91518C4.03218 17.4553 2.47575 16.0422 2.29538 14.1672L1.35279 4.36383H0.727306C0.325833 4.36383 0 4.03873 0 3.63653C0 3.23433 0.325833 2.90922 0.727306 2.90922H3.70999C4.04818 1.25169 5.51734 0 7.27306 0H8.72767C10.4834 0 11.9533 1.25169 12.2907 2.90922H15.2734C15.6749 2.90922 16 3.23433 16 3.63653ZM5.21551 2.90922H10.7838C10.4834 2.06264 9.67535 1.45461 8.72694 1.45461H7.27233C6.32392 1.45461 5.51589 2.06264 5.21551 2.90922ZM13.1679 4.36383H2.81395L3.74344 14.0275C3.85108 15.1527 4.78494 16.0007 5.91518 16.0007H10.0805C11.2121 16.0007 12.146 15.1512 12.2529 14.0239L13.1679 4.36383Z" fill="white"/>
</svg>
