<svg width="21" height="20" viewBox="0 0 21 20" fill="none" xmlns="http://www.w3.org/2000/svg">
<path d="M18 4.98307C15.225 4.70807 12.4333 4.56641 9.65 4.56641C8 4.56641 6.35 4.64974 4.7 4.81641L3 4.98307" stroke="white" stroke-width="1.5" stroke-linecap="round" stroke-linejoin="round"/>
<path d="M7.5835 4.14199L7.76684 3.05033C7.90017 2.25866 8.00017 1.66699 9.4085 1.66699H11.5918C13.0001 1.66699 13.1085 2.29199 13.2335 3.05866L13.4168 4.14199" stroke="white" stroke-width="1.5" stroke-linecap="round" stroke-linejoin="round"/>
<path d="M16.2082 7.61621L15.6665 16.0079C15.5749 17.3162 15.4999 18.3329 13.1749 18.3329H7.82483C5.49983 18.3329 5.42483 17.3162 5.33316 16.0079L4.7915 7.61621" stroke="white" stroke-width="1.5" stroke-linecap="round" stroke-linejoin="round"/>
<path d="M9.1084 13.75H11.8834" stroke="white" stroke-width="1.5" stroke-linecap="round" stroke-linejoin="round"/>
<path d="M8.4165 10.417H12.5832" stroke="white" stroke-width="1.5" stroke-linecap="round" stroke-linejoin="round"/>
</svg>
