<svg width="21" height="20" viewBox="0 0 21 20" fill="none" xmlns="http://www.w3.org/2000/svg">
<g id="vuesax/linear/trash">
<g id="trash">
<path id="Vector" d="M18 4.98307C15.225 4.70807 12.4333 4.56641 9.65 4.56641C8 4.56641 6.35 4.64974 4.7 4.81641L3 4.98307" stroke="#72787F" stroke-width="1.5" stroke-linecap="round" stroke-linejoin="round"/>
<path id="Vector_2" d="M7.58337 4.14199L7.76671 3.05033C7.90004 2.25866 8.00004 1.66699 9.40837 1.66699H11.5917C13 1.66699 13.1084 2.29199 13.2334 3.05866L13.4167 4.14199" stroke="#72787F" stroke-width="1.5" stroke-linecap="round" stroke-linejoin="round"/>
<path id="Vector_3" d="M16.2083 7.61621L15.6666 16.0079C15.575 17.3162 15.5 18.3329 13.175 18.3329H7.82496C5.49996 18.3329 5.42496 17.3162 5.33329 16.0079L4.79163 7.61621" stroke="#72787F" stroke-width="1.5" stroke-linecap="round" stroke-linejoin="round"/>
<path id="Vector_4" d="M9.10828 13.75H11.8833" stroke="#72787F" stroke-width="1.5" stroke-linecap="round" stroke-linejoin="round"/>
<path id="Vector_5" d="M8.41663 10.417H12.5833" stroke="#72787F" stroke-width="1.5" stroke-linecap="round" stroke-linejoin="round"/>
</g>
</g>
</svg>
